<mxfile host="Electron" modified="2024-05-30T15:11:55.128Z" agent="Mozilla/5.0 (X11; Linux x86_64) AppleWebKit/537.36 (KHTML, like Gecko) draw.io/24.4.8 Chrome/124.0.6367.207 Electron/30.0.6 Safari/537.36" etag="xTxGKM-2O-kJWAyZFv_2" version="24.4.8" type="device" pages="2">
  <diagram name="第 1 页" id="02tf_VK-DE16-njmGA3X">
    <mxGraphModel dx="1185" dy="681" grid="1" gridSize="1" guides="1" tooltips="1" connect="1" arrows="1" fold="1" page="1" pageScale="1" pageWidth="827" pageHeight="1169" math="1" shadow="0">
      <root>
        <mxCell id="0" />
        <mxCell id="1" parent="0" />
        <mxCell id="g_A5nNKJpkJlQ7MbuD3F-197" value="" style="rounded=1;whiteSpace=wrap;html=1;dashed=1;fillColor=none;strokeColor=#CCCCCC;fontFamily=宋体;fontSize=10.5;" parent="1" vertex="1">
          <mxGeometry x="12" y="4.74" width="573" height="65.26" as="geometry" />
        </mxCell>
        <mxCell id="g_A5nNKJpkJlQ7MbuD3F-143" value="" style="rounded=1;whiteSpace=wrap;html=1;fillColor=none;strokeColor=#CCCCCC;fontFamily=宋体;fontSize=10.5;" parent="1" vertex="1">
          <mxGeometry x="16" y="76" width="148" height="213" as="geometry" />
        </mxCell>
        <mxCell id="g_A5nNKJpkJlQ7MbuD3F-181" value="" style="rounded=1;whiteSpace=wrap;html=1;fillColor=#CCCCCC;strokeColor=#CCCCCC;fontFamily=宋体;fontSize=10.5;" parent="1" vertex="1">
          <mxGeometry x="780" y="90" width="39" height="184" as="geometry" />
        </mxCell>
        <mxCell id="g_A5nNKJpkJlQ7MbuD3F-144" value="&lt;font style=&quot;font-size: 10.5px;&quot;&gt;原始梯度&lt;/font&gt;" style="text;html=1;align=center;verticalAlign=middle;whiteSpace=wrap;rounded=0;fontFamily=宋体;fontSize=10.5;" parent="1" vertex="1">
          <mxGeometry x="59.99999999999999" y="82" width="60" height="13" as="geometry" />
        </mxCell>
        <mxCell id="g_A5nNKJpkJlQ7MbuD3F-160" value="`8\times`" style="ellipse;whiteSpace=wrap;html=1;aspect=fixed;fontFamily=宋体;fontSize=10.5;" parent="1" vertex="1">
          <mxGeometry x="533.74" y="19.74000000000001" width="21.26" height="21.26" as="geometry" />
        </mxCell>
        <mxCell id="g_A5nNKJpkJlQ7MbuD3F-161" value="&lt;font style=&quot;font-size: 10.5px;&quot;&gt;局部压缩比&lt;/font&gt;" style="text;html=1;align=center;verticalAlign=middle;whiteSpace=wrap;rounded=0;fontFamily=宋体;fontSize=10.5;" parent="1" vertex="1">
          <mxGeometry x="514" y="51.00000000000001" width="62.74" height="13" as="geometry" />
        </mxCell>
        <mxCell id="g_A5nNKJpkJlQ7MbuD3F-162" value="" style="shape=flexArrow;endArrow=classic;html=1;rounded=0;fillColor=#d5e8d4;strokeColor=none;gradientColor=#97d077;fontFamily=宋体;fontSize=10.5;" parent="1" edge="1">
          <mxGeometry width="50" height="50" relative="1" as="geometry">
            <mxPoint x="177.52" y="189" as="sourcePoint" />
            <mxPoint x="266.52" y="189" as="targetPoint" />
          </mxGeometry>
        </mxCell>
        <mxCell id="g_A5nNKJpkJlQ7MbuD3F-184" value="" style="group;fontFamily=宋体;fontSize=10.5;" parent="1" vertex="1" connectable="0">
          <mxGeometry x="274" y="119" width="170" height="126" as="geometry" />
        </mxCell>
        <mxCell id="g_A5nNKJpkJlQ7MbuD3F-166" value="" style="endArrow=classic;html=1;rounded=0;fontFamily=宋体;fontSize=10.5;" parent="g_A5nNKJpkJlQ7MbuD3F-184" edge="1">
          <mxGeometry width="50" height="50" relative="1" as="geometry">
            <mxPoint x="21" y="101" as="sourcePoint" />
            <mxPoint x="169" y="101" as="targetPoint" />
          </mxGeometry>
        </mxCell>
        <mxCell id="g_A5nNKJpkJlQ7MbuD3F-167" value="" style="endArrow=classic;html=1;rounded=0;fontFamily=宋体;fontSize=10.5;" parent="g_A5nNKJpkJlQ7MbuD3F-184" edge="1">
          <mxGeometry width="50" height="50" relative="1" as="geometry">
            <mxPoint x="22" y="102" as="sourcePoint" />
            <mxPoint x="22" y="3" as="targetPoint" />
          </mxGeometry>
        </mxCell>
        <mxCell id="g_A5nNKJpkJlQ7MbuD3F-169" value="" style="rounded=0;whiteSpace=wrap;html=1;fillColor=#b1ddf0;strokeColor=#10739e;fontFamily=宋体;fontSize=10.5;" parent="g_A5nNKJpkJlQ7MbuD3F-184" vertex="1">
          <mxGeometry x="34" y="74" width="15" height="27" as="geometry" />
        </mxCell>
        <mxCell id="g_A5nNKJpkJlQ7MbuD3F-170" value="" style="rounded=0;whiteSpace=wrap;html=1;fillColor=#d0cee2;strokeColor=#56517e;fontFamily=宋体;fontSize=10.5;" parent="g_A5nNKJpkJlQ7MbuD3F-184" vertex="1">
          <mxGeometry x="57" y="65" width="15" height="36" as="geometry" />
        </mxCell>
        <mxCell id="g_A5nNKJpkJlQ7MbuD3F-171" value="" style="rounded=0;whiteSpace=wrap;html=1;fillColor=#fad9d5;strokeColor=#ae4132;fontFamily=宋体;fontSize=10.5;" parent="g_A5nNKJpkJlQ7MbuD3F-184" vertex="1">
          <mxGeometry x="79" y="47" width="15" height="54" as="geometry" />
        </mxCell>
        <mxCell id="g_A5nNKJpkJlQ7MbuD3F-172" value="" style="rounded=0;whiteSpace=wrap;html=1;fillColor=#b1ddf0;strokeColor=#10739e;fontFamily=宋体;fontSize=10.5;" parent="g_A5nNKJpkJlQ7MbuD3F-184" vertex="1">
          <mxGeometry x="139" y="30" width="15" height="71" as="geometry" />
        </mxCell>
        <mxCell id="g_A5nNKJpkJlQ7MbuD3F-173" value="" style="group;rotation=-180;fontFamily=宋体;fontSize=10.5;" parent="g_A5nNKJpkJlQ7MbuD3F-184" vertex="1" connectable="0">
          <mxGeometry x="107" y="59" width="22.480434782608697" height="4" as="geometry" />
        </mxCell>
        <mxCell id="g_A5nNKJpkJlQ7MbuD3F-174" style="vsdxID=556;fillColor=#000000;gradientColor=none;shape=stencil(vVHLDsIgEPwajiQU4hfU+h8bu7RELM2CFv9eyMZYjCcP3mZ2Zh/ZEaaPM6wotIqJwgU3N6ZZmKPQ2i0zkksFCTMI09tAOFG4LSPzFaqzomu41wmZ+1Tt0OrB7MD0xE6gc5EoN5qi1vsa1Kmvo1SWkF2UFBIkF5ZmqweaUJY10nqYGiluiOuu3P182P/OKuD9Zuu855T2+mcspcSRmuEJ);strokeColor=none;points=[[0.5,0,0],[0.5,0.5,0],[0.5,0.5,0],[0.5,0.5,0],[1,0.5,0],[0.15,0.85,0],[0.85,0.85,0],[0.85,0.15,0],[0.15,0.15,0]];labelBackgroundColor=none;rounded=0;html=1;whiteSpace=wrap;rotation=-180;fontFamily=宋体;fontSize=10.5;" parent="g_A5nNKJpkJlQ7MbuD3F-173" vertex="1">
          <mxGeometry x="18" width="3.7391304347826098" height="4" as="geometry" />
        </mxCell>
        <mxCell id="g_A5nNKJpkJlQ7MbuD3F-175" style="vsdxID=557;fillColor=#000000;gradientColor=none;shape=stencil(vVHLDsIgEPwajiQU4hfU+h8bu7RELM2CFv9eyMZYjCcP3mZ2Zh/ZEaaPM6wotIqJwgU3N6ZZmKPQ2i0zkksFCTMI09tAOFG4LSPzFaqzomu41wmZ+1Tt0OrB7MD0xE6gc5EoN5qi1vsa1Kmvo1SWkF2UFBIkF5ZmqweaUJY10nqYGiluiOuu3P182P/OKuD9Zuu855T2+mcspcSRmuEJ);strokeColor=none;points=[[0.5,0,0],[0.5,0.5,0],[0.5,0.5,0],[0.5,0.5,0],[1,0.5,0],[0.15,0.85,0],[0.85,0.85,0],[0.85,0.15,0],[0.15,0.15,0]];labelBackgroundColor=none;rounded=0;html=1;whiteSpace=wrap;rotation=-180;fontFamily=宋体;fontSize=10.5;" parent="g_A5nNKJpkJlQ7MbuD3F-173" vertex="1">
          <mxGeometry x="9" width="3.7391304347826098" height="4" as="geometry" />
        </mxCell>
        <mxCell id="g_A5nNKJpkJlQ7MbuD3F-176" style="vsdxID=558;fillColor=#000000;gradientColor=none;shape=stencil(vVHLDsIgEPwajiQU4hfU+h8bu7RELM2CFv9eyMZYjCcP3mZ2Zh/ZEaaPM6wotIqJwgU3N6ZZmKPQ2i0zkksFCTMI09tAOFG4LSPzFaqzomu41wmZ+1Tt0OrB7MD0xE6gc5EoN5qi1vsa1Kmvo1SWkF2UFBIkF5ZmqweaUJY10nqYGiluiOuu3P182P/OKuD9Zuu855T2+mcspcSRmuEJ);strokeColor=none;points=[[0.5,0,0],[0.5,0.5,0],[0.5,0.5,0],[0.5,0.5,0],[1,0.5,0],[0.15,0.85,0],[0.85,0.85,0],[0.85,0.15,0],[0.15,0.15,0]];labelBackgroundColor=none;rounded=0;html=1;whiteSpace=wrap;rotation=-180;fontFamily=宋体;fontSize=10.5;" parent="g_A5nNKJpkJlQ7MbuD3F-173" vertex="1">
          <mxGeometry width="3.7391304347826098" height="4" as="geometry" />
        </mxCell>
        <mxCell id="g_A5nNKJpkJlQ7MbuD3F-177" value="梯度索引" style="text;html=1;align=center;verticalAlign=middle;whiteSpace=wrap;rounded=0;fontFamily=宋体;fontSize=10.5;" parent="g_A5nNKJpkJlQ7MbuD3F-184" vertex="1">
          <mxGeometry x="125" y="107" width="45" height="15" as="geometry" />
        </mxCell>
        <mxCell id="g_A5nNKJpkJlQ7MbuD3F-178" value="幅值" style="text;html=1;align=center;verticalAlign=middle;whiteSpace=wrap;rounded=0;fontFamily=宋体;fontSize=10.5;" parent="g_A5nNKJpkJlQ7MbuD3F-184" vertex="1">
          <mxGeometry width="16" height="34" as="geometry" />
        </mxCell>
        <mxCell id="g_A5nNKJpkJlQ7MbuD3F-185" value="" style="group;fontFamily=宋体;fontSize=10.5;" parent="1" vertex="1" connectable="0">
          <mxGeometry x="449" y="147" width="107" height="109" as="geometry" />
        </mxCell>
        <mxCell id="g_A5nNKJpkJlQ7MbuD3F-164" value="" style="shape=flexArrow;endArrow=classic;html=1;rounded=0;fillColor=#fa6800;strokeColor=none;fontFamily=宋体;fontSize=10.5;" parent="g_A5nNKJpkJlQ7MbuD3F-185" edge="1">
          <mxGeometry width="50" height="50" relative="1" as="geometry">
            <mxPoint x="47" y="109" as="sourcePoint" />
            <mxPoint x="47" y="52" as="targetPoint" />
          </mxGeometry>
        </mxCell>
        <mxCell id="g_A5nNKJpkJlQ7MbuD3F-165" value="全局&lt;br style=&quot;font-size: 10.5px;&quot;&gt;压缩比" style="text;html=1;align=center;verticalAlign=middle;whiteSpace=wrap;rounded=0;fontFamily=宋体;fontSize=10.5;" parent="g_A5nNKJpkJlQ7MbuD3F-185" vertex="1">
          <mxGeometry x="51" y="80" width="38" height="17" as="geometry" />
        </mxCell>
        <mxCell id="g_A5nNKJpkJlQ7MbuD3F-179" value="" style="shape=flexArrow;endArrow=classic;html=1;rounded=0;fillColor=#d5e8d4;strokeColor=none;gradientColor=#97d077;fontFamily=宋体;fontSize=10.5;" parent="g_A5nNKJpkJlQ7MbuD3F-185" edge="1">
          <mxGeometry width="50" height="50" relative="1" as="geometry">
            <mxPoint y="42" as="sourcePoint" />
            <mxPoint x="107" y="41" as="targetPoint" />
          </mxGeometry>
        </mxCell>
        <mxCell id="g_A5nNKJpkJlQ7MbuD3F-180" value="计算感知获取局部压缩比" style="text;html=1;align=center;verticalAlign=middle;whiteSpace=wrap;rounded=0;fontFamily=宋体;fontSize=10.5;" parent="g_A5nNKJpkJlQ7MbuD3F-185" vertex="1">
          <mxGeometry x="10" y="6" width="74" height="30" as="geometry" />
        </mxCell>
        <mxCell id="g_A5nNKJpkJlQ7MbuD3F-183" value="" style="shape=flexArrow;endArrow=classic;html=1;rounded=0;fillColor=#d5e8d4;strokeColor=none;gradientColor=#97d077;fontFamily=宋体;fontSize=10.5;" parent="1" edge="1">
          <mxGeometry width="50" height="50" relative="1" as="geometry">
            <mxPoint x="724" y="188" as="sourcePoint" />
            <mxPoint x="775" y="188" as="targetPoint" />
          </mxGeometry>
        </mxCell>
        <mxCell id="g_A5nNKJpkJlQ7MbuD3F-182" value="&lt;font style=&quot;font-size: 10.5px;&quot;&gt;局部&lt;br style=&quot;font-size: 10.5px;&quot;&gt;压缩比&lt;/font&gt;" style="text;html=1;align=center;verticalAlign=middle;whiteSpace=wrap;rounded=0;fontFamily=宋体;fontSize=10.5;" parent="1" vertex="1">
          <mxGeometry x="716" y="151" width="40" height="30" as="geometry" />
        </mxCell>
        <mxCell id="g_A5nNKJpkJlQ7MbuD3F-155" value="`35\times`" style="ellipse;whiteSpace=wrap;html=1;aspect=fixed;fillColor=#d0cee2;strokeColor=#56517e;fontFamily=宋体;fontSize=10.5;" parent="1" vertex="1">
          <mxGeometry x="785" y="98" width="28" height="28" as="geometry" />
        </mxCell>
        <mxCell id="g_A5nNKJpkJlQ7MbuD3F-156" value="`92\times`" style="ellipse;whiteSpace=wrap;html=1;aspect=fixed;fillColor=#fad7ac;strokeColor=#b46504;fontFamily=宋体;fontSize=10.5;" parent="1" vertex="1">
          <mxGeometry x="785" y="140" width="28" height="28" as="geometry" />
        </mxCell>
        <mxCell id="g_A5nNKJpkJlQ7MbuD3F-157" value="`17\times`" style="ellipse;whiteSpace=wrap;html=1;aspect=fixed;fillColor=#b0e3e6;strokeColor=#0e8088;fontFamily=宋体;fontSize=10.5;" parent="1" vertex="1">
          <mxGeometry x="786" y="181" width="28" height="28" as="geometry" />
        </mxCell>
        <mxCell id="g_A5nNKJpkJlQ7MbuD3F-158" value="`84\times`" style="ellipse;whiteSpace=wrap;html=1;aspect=fixed;fillColor=#fad9d5;strokeColor=#ae4132;fontFamily=宋体;fontSize=10.5;" parent="1" vertex="1">
          <mxGeometry x="787" y="238" width="28" height="28" as="geometry" />
        </mxCell>
        <mxCell id="g_A5nNKJpkJlQ7MbuD3F-134" value="" style="shape=cube;whiteSpace=wrap;html=1;boundedLbl=1;backgroundOutline=1;darkOpacity=0.05;darkOpacity2=0.1;fillColor=#b0e3e6;strokeColor=#0e8088;fontFamily=宋体;fontSize=10.5;" parent="1" vertex="1">
          <mxGeometry x="21.019999999999982" y="174" width="139" height="42" as="geometry" />
        </mxCell>
        <mxCell id="g_A5nNKJpkJlQ7MbuD3F-136" value="" style="shape=cube;whiteSpace=wrap;html=1;boundedLbl=1;backgroundOutline=1;darkOpacity=0.05;darkOpacity2=0.1;fillColor=#FFCC99;strokeColor=#ae4132;fontFamily=宋体;fontSize=10.5;" parent="1" vertex="1">
          <mxGeometry x="20.519999999999982" y="138" width="140" height="42" as="geometry" />
        </mxCell>
        <mxCell id="g_A5nNKJpkJlQ7MbuD3F-133" value="" style="shape=cube;whiteSpace=wrap;html=1;boundedLbl=1;backgroundOutline=1;darkOpacity=0.05;darkOpacity2=0.1;fillColor=#d0cee2;strokeColor=#56517e;fontFamily=宋体;fontSize=10.5;" parent="1" vertex="1">
          <mxGeometry x="20.519999999999982" y="101" width="140" height="42" as="geometry" />
        </mxCell>
        <mxCell id="g_A5nNKJpkJlQ7MbuD3F-135" value="" style="shape=cube;whiteSpace=wrap;html=1;boundedLbl=1;backgroundOutline=1;darkOpacity=0.05;darkOpacity2=0.1;fillColor=#fad9d5;strokeColor=#ae4132;fontFamily=宋体;fontSize=10.5;" parent="1" vertex="1">
          <mxGeometry x="20.519999999999982" y="233" width="139" height="42" as="geometry" />
        </mxCell>
        <mxCell id="g_A5nNKJpkJlQ7MbuD3F-137" value="" style="group;rotation=90;fontFamily=宋体;fontSize=10.5;" parent="1" vertex="1" connectable="0">
          <mxGeometry x="81" y="229" width="22.480434782608697" height="4" as="geometry" />
        </mxCell>
        <mxCell id="g_A5nNKJpkJlQ7MbuD3F-138" style="vsdxID=556;fillColor=#000000;gradientColor=none;shape=stencil(vVHLDsIgEPwajiQU4hfU+h8bu7RELM2CFv9eyMZYjCcP3mZ2Zh/ZEaaPM6wotIqJwgU3N6ZZmKPQ2i0zkksFCTMI09tAOFG4LSPzFaqzomu41wmZ+1Tt0OrB7MD0xE6gc5EoN5qi1vsa1Kmvo1SWkF2UFBIkF5ZmqweaUJY10nqYGiluiOuu3P182P/OKuD9Zuu855T2+mcspcSRmuEJ);strokeColor=none;points=[[0.5,0,0],[0.5,0.5,0],[0.5,0.5,0],[0.5,0.5,0],[1,0.5,0],[0.15,0.85,0],[0.85,0.85,0],[0.85,0.15,0],[0.15,0.15,0]];labelBackgroundColor=none;rounded=0;html=1;whiteSpace=wrap;rotation=90;fontFamily=宋体;fontSize=10.5;" parent="g_A5nNKJpkJlQ7MbuD3F-137" vertex="1">
          <mxGeometry x="9" y="-9" width="3.7391304347826098" height="4" as="geometry" />
        </mxCell>
        <mxCell id="g_A5nNKJpkJlQ7MbuD3F-139" style="vsdxID=557;fillColor=#000000;gradientColor=none;shape=stencil(vVHLDsIgEPwajiQU4hfU+h8bu7RELM2CFv9eyMZYjCcP3mZ2Zh/ZEaaPM6wotIqJwgU3N6ZZmKPQ2i0zkksFCTMI09tAOFG4LSPzFaqzomu41wmZ+1Tt0OrB7MD0xE6gc5EoN5qi1vsa1Kmvo1SWkF2UFBIkF5ZmqweaUJY10nqYGiluiOuu3P182P/OKuD9Zuu855T2+mcspcSRmuEJ);strokeColor=none;points=[[0.5,0,0],[0.5,0.5,0],[0.5,0.5,0],[0.5,0.5,0],[1,0.5,0],[0.15,0.85,0],[0.85,0.85,0],[0.85,0.15,0],[0.15,0.15,0]];labelBackgroundColor=none;rounded=0;html=1;whiteSpace=wrap;rotation=90;fontFamily=宋体;fontSize=10.5;" parent="g_A5nNKJpkJlQ7MbuD3F-137" vertex="1">
          <mxGeometry x="9" width="3.7391304347826098" height="4" as="geometry" />
        </mxCell>
        <mxCell id="g_A5nNKJpkJlQ7MbuD3F-140" style="vsdxID=558;fillColor=#000000;gradientColor=none;shape=stencil(vVHLDsIgEPwajiQU4hfU+h8bu7RELM2CFv9eyMZYjCcP3mZ2Zh/ZEaaPM6wotIqJwgU3N6ZZmKPQ2i0zkksFCTMI09tAOFG4LSPzFaqzomu41wmZ+1Tt0OrB7MD0xE6gc5EoN5qi1vsa1Kmvo1SWkF2UFBIkF5ZmqweaUJY10nqYGiluiOuu3P182P/OKuD9Zuu855T2+mcspcSRmuEJ);strokeColor=none;points=[[0.5,0,0],[0.5,0.5,0],[0.5,0.5,0],[0.5,0.5,0],[1,0.5,0],[0.15,0.85,0],[0.85,0.85,0],[0.85,0.15,0],[0.15,0.15,0]];labelBackgroundColor=none;rounded=0;html=1;whiteSpace=wrap;rotation=90;fontFamily=宋体;fontSize=10.5;" parent="g_A5nNKJpkJlQ7MbuD3F-137" vertex="1">
          <mxGeometry x="9" y="9" width="3.7391304347826098" height="4" as="geometry" />
        </mxCell>
        <mxCell id="g_A5nNKJpkJlQ7MbuD3F-189" value="" style="shape=cube;whiteSpace=wrap;html=1;boundedLbl=1;backgroundOutline=1;darkOpacity=0.05;darkOpacity2=0.1;fillColor=#d0cee2;strokeColor=#56517e;size=15;fontFamily=宋体;fontSize=10.5;" parent="1" vertex="1">
          <mxGeometry x="16" y="16" width="73" height="26" as="geometry" />
        </mxCell>
        <mxCell id="g_A5nNKJpkJlQ7MbuD3F-190" value="" style="shape=cube;whiteSpace=wrap;html=1;boundedLbl=1;backgroundOutline=1;darkOpacity=0.05;darkOpacity2=0.1;fillColor=#FFCC99;strokeColor=#ae4132;size=15;fontFamily=宋体;fontSize=10.5;" parent="1" vertex="1">
          <mxGeometry x="113" y="16" width="77" height="26" as="geometry" />
        </mxCell>
        <mxCell id="g_A5nNKJpkJlQ7MbuD3F-191" value="" style="shape=cube;whiteSpace=wrap;html=1;boundedLbl=1;backgroundOutline=1;darkOpacity=0.05;darkOpacity2=0.1;fillColor=#b0e3e6;strokeColor=#0e8088;size=15;fontFamily=宋体;fontSize=10.5;" parent="1" vertex="1">
          <mxGeometry x="212" y="16" width="72.5" height="25.74" as="geometry" />
        </mxCell>
        <mxCell id="g_A5nNKJpkJlQ7MbuD3F-192" value="" style="shape=cube;whiteSpace=wrap;html=1;boundedLbl=1;backgroundOutline=1;darkOpacity=0.05;darkOpacity2=0.1;fillColor=#fad9d5;strokeColor=#ae4132;size=14;fontFamily=宋体;fontSize=10.5;" parent="1" vertex="1">
          <mxGeometry x="309" y="16.74000000000001" width="73" height="26" as="geometry" />
        </mxCell>
        <mxCell id="g_A5nNKJpkJlQ7MbuD3F-193" value="&lt;font style=&quot;font-size: 10.5px;&quot;&gt;第1层梯度&lt;/font&gt;" style="text;html=1;align=center;verticalAlign=middle;whiteSpace=wrap;rounded=0;fontFamily=宋体;fontSize=10.5;" parent="1" vertex="1">
          <mxGeometry x="25.150000000000006" y="48.74000000000001" width="62.74" height="13" as="geometry" />
        </mxCell>
        <mxCell id="g_A5nNKJpkJlQ7MbuD3F-194" value="&lt;font style=&quot;font-size: 10.5px;&quot;&gt;第2层梯度&lt;/font&gt;" style="text;html=1;align=center;verticalAlign=middle;whiteSpace=wrap;rounded=0;fontFamily=宋体;fontSize=10.5;" parent="1" vertex="1">
          <mxGeometry x="126" y="48.74000000000001" width="62.74" height="13" as="geometry" />
        </mxCell>
        <mxCell id="g_A5nNKJpkJlQ7MbuD3F-195" value="&lt;font style=&quot;font-size: 10.5px;&quot;&gt;第3层梯度&lt;/font&gt;" style="text;html=1;align=center;verticalAlign=middle;whiteSpace=wrap;rounded=0;fontFamily=宋体;fontSize=10.5;" parent="1" vertex="1">
          <mxGeometry x="224" y="48.74000000000001" width="62.74" height="13" as="geometry" />
        </mxCell>
        <mxCell id="g_A5nNKJpkJlQ7MbuD3F-196" value="&lt;font style=&quot;font-size: 10.5px;&quot;&gt;第`n^{k[L]}`层梯度&lt;/font&gt;" style="text;html=1;align=center;verticalAlign=middle;whiteSpace=wrap;rounded=0;fontFamily=宋体;fontSize=10.5;" parent="1" vertex="1">
          <mxGeometry x="320" y="49.74000000000001" width="74" height="13" as="geometry" />
        </mxCell>
        <mxCell id="DTx1MhUUulHserH8kJrY-1" value="" style="shape=cube;whiteSpace=wrap;html=1;boundedLbl=1;backgroundOutline=1;darkOpacity=0.05;darkOpacity2=0.1;fillColor=default;strokeColor=#56517e;fillStyle=auto;size=15;fontFamily=宋体;fontSize=10.5;" parent="1" vertex="1">
          <mxGeometry x="415" y="16.870000000000005" width="72" height="27" as="geometry" />
        </mxCell>
        <mxCell id="DTx1MhUUulHserH8kJrY-2" value="&lt;font style=&quot;font-size: 10.5px;&quot;&gt;压缩后梯度&lt;/font&gt;" style="text;html=1;align=center;verticalAlign=middle;whiteSpace=wrap;rounded=0;fontFamily=宋体;fontSize=10.5;" parent="1" vertex="1">
          <mxGeometry x="427" y="48.74000000000001" width="62.74" height="13" as="geometry" />
        </mxCell>
        <mxCell id="DTx1MhUUulHserH8kJrY-3" value="`\frac{|g_{i}^{m[j]}|}{\left(#FLOPs_{j} \right)^{\kappa}}`" style="text;html=1;align=center;verticalAlign=middle;whiteSpace=wrap;rounded=0;fontFamily=宋体;fontSize=10.5;" parent="1" vertex="1">
          <mxGeometry x="168" y="145" width="84" height="37" as="geometry" />
        </mxCell>
        <mxCell id="g_A5nNKJpkJlQ7MbuD3F-153" value="" style="rounded=1;whiteSpace=wrap;html=1;fillColor=none;strokeColor=#CCCCCC;fontFamily=宋体;fontSize=10.5;" parent="1" vertex="1">
          <mxGeometry x="564" y="75" width="154" height="205" as="geometry" />
        </mxCell>
        <mxCell id="g_A5nNKJpkJlQ7MbuD3F-145" value="" style="shape=cube;whiteSpace=wrap;html=1;boundedLbl=1;backgroundOutline=1;darkOpacity=0.05;darkOpacity2=0.1;fillColor=default;strokeColor=#0e8088;fillStyle=auto;fontFamily=宋体;fontSize=10.5;" parent="1" vertex="1">
          <mxGeometry x="568.02" y="174" width="139" height="42" as="geometry" />
        </mxCell>
        <mxCell id="g_A5nNKJpkJlQ7MbuD3F-146" value="" style="shape=cube;whiteSpace=wrap;html=1;boundedLbl=1;backgroundOutline=1;darkOpacity=0.05;darkOpacity2=0.1;fillColor=default;strokeColor=#ae4132;fillStyle=auto;fontFamily=宋体;fontSize=10.5;" parent="1" vertex="1">
          <mxGeometry x="567.52" y="138" width="140" height="42" as="geometry" />
        </mxCell>
        <mxCell id="g_A5nNKJpkJlQ7MbuD3F-147" value="" style="shape=cube;whiteSpace=wrap;html=1;boundedLbl=1;backgroundOutline=1;darkOpacity=0.05;darkOpacity2=0.1;fillColor=default;strokeColor=#56517e;fillStyle=auto;fontFamily=宋体;fontSize=10.5;" parent="1" vertex="1">
          <mxGeometry x="567.52" y="101" width="140" height="42" as="geometry" />
        </mxCell>
        <mxCell id="g_A5nNKJpkJlQ7MbuD3F-148" value="" style="shape=cube;whiteSpace=wrap;html=1;boundedLbl=1;backgroundOutline=1;darkOpacity=0.05;darkOpacity2=0.1;fillColor=default;strokeColor=#ae4132;fillStyle=auto;fontFamily=宋体;fontSize=10.5;" parent="1" vertex="1">
          <mxGeometry x="567.52" y="233" width="139" height="42" as="geometry" />
        </mxCell>
        <mxCell id="g_A5nNKJpkJlQ7MbuD3F-149" value="" style="group;rotation=90;fontFamily=宋体;fontSize=10.5;" parent="1" vertex="1" connectable="0">
          <mxGeometry x="628" y="229" width="22.480434782608697" height="4" as="geometry" />
        </mxCell>
        <mxCell id="g_A5nNKJpkJlQ7MbuD3F-150" style="vsdxID=556;fillColor=#000000;gradientColor=none;shape=stencil(vVHLDsIgEPwajiQU4hfU+h8bu7RELM2CFv9eyMZYjCcP3mZ2Zh/ZEaaPM6wotIqJwgU3N6ZZmKPQ2i0zkksFCTMI09tAOFG4LSPzFaqzomu41wmZ+1Tt0OrB7MD0xE6gc5EoN5qi1vsa1Kmvo1SWkF2UFBIkF5ZmqweaUJY10nqYGiluiOuu3P182P/OKuD9Zuu855T2+mcspcSRmuEJ);strokeColor=none;points=[[0.5,0,0],[0.5,0.5,0],[0.5,0.5,0],[0.5,0.5,0],[1,0.5,0],[0.15,0.85,0],[0.85,0.85,0],[0.85,0.15,0],[0.15,0.15,0]];labelBackgroundColor=none;rounded=0;html=1;whiteSpace=wrap;rotation=90;fontFamily=宋体;fontSize=10.5;" parent="g_A5nNKJpkJlQ7MbuD3F-149" vertex="1">
          <mxGeometry x="9" y="-9" width="3.7391304347826098" height="4" as="geometry" />
        </mxCell>
        <mxCell id="g_A5nNKJpkJlQ7MbuD3F-151" style="vsdxID=557;fillColor=#000000;gradientColor=none;shape=stencil(vVHLDsIgEPwajiQU4hfU+h8bu7RELM2CFv9eyMZYjCcP3mZ2Zh/ZEaaPM6wotIqJwgU3N6ZZmKPQ2i0zkksFCTMI09tAOFG4LSPzFaqzomu41wmZ+1Tt0OrB7MD0xE6gc5EoN5qi1vsa1Kmvo1SWkF2UFBIkF5ZmqweaUJY10nqYGiluiOuu3P182P/OKuD9Zuu855T2+mcspcSRmuEJ);strokeColor=none;points=[[0.5,0,0],[0.5,0.5,0],[0.5,0.5,0],[0.5,0.5,0],[1,0.5,0],[0.15,0.85,0],[0.85,0.85,0],[0.85,0.15,0],[0.15,0.15,0]];labelBackgroundColor=none;rounded=0;html=1;whiteSpace=wrap;rotation=90;fontFamily=宋体;fontSize=10.5;" parent="g_A5nNKJpkJlQ7MbuD3F-149" vertex="1">
          <mxGeometry x="9" width="3.7391304347826098" height="4" as="geometry" />
        </mxCell>
        <mxCell id="g_A5nNKJpkJlQ7MbuD3F-152" style="vsdxID=558;fillColor=#000000;gradientColor=none;shape=stencil(vVHLDsIgEPwajiQU4hfU+h8bu7RELM2CFv9eyMZYjCcP3mZ2Zh/ZEaaPM6wotIqJwgU3N6ZZmKPQ2i0zkksFCTMI09tAOFG4LSPzFaqzomu41wmZ+1Tt0OrB7MD0xE6gc5EoN5qi1vsa1Kmvo1SWkF2UFBIkF5ZmqweaUJY10nqYGiluiOuu3P182P/OKuD9Zuu855T2+mcspcSRmuEJ);strokeColor=none;points=[[0.5,0,0],[0.5,0.5,0],[0.5,0.5,0],[0.5,0.5,0],[1,0.5,0],[0.15,0.85,0],[0.85,0.85,0],[0.85,0.15,0],[0.15,0.15,0]];labelBackgroundColor=none;rounded=0;html=1;whiteSpace=wrap;rotation=90;fontFamily=宋体;fontSize=10.5;" parent="g_A5nNKJpkJlQ7MbuD3F-149" vertex="1">
          <mxGeometry x="9" y="9" width="3.7391304347826098" height="4" as="geometry" />
        </mxCell>
        <mxCell id="g_A5nNKJpkJlQ7MbuD3F-154" value="&lt;font style=&quot;font-size: 10.5px;&quot;&gt;压缩后梯度&lt;/font&gt;" style="text;html=1;align=center;verticalAlign=middle;whiteSpace=wrap;rounded=0;fontFamily=宋体;fontSize=10.5;" parent="1" vertex="1">
          <mxGeometry x="610" y="80" width="62.74" height="13" as="geometry" />
        </mxCell>
      </root>
    </mxGraphModel>
  </diagram>
  <diagram id="BdTTwsCuMjXPrjr59dpl" name="第 2 页">
    <mxGraphModel dx="744" dy="426" grid="1" gridSize="2" guides="1" tooltips="1" connect="1" arrows="1" fold="1" page="1" pageScale="1" pageWidth="827" pageHeight="1169" math="1" shadow="0">
      <root>
        <mxCell id="0" />
        <mxCell id="1" parent="0" />
        <mxCell id="VMAdAS11OgDW_Fi8vncO-31" value="" style="rounded=0;whiteSpace=wrap;html=1;fillColor=#fff2cc;dashed=1;strokeColor=#d6b656;" parent="1" vertex="1">
          <mxGeometry x="36" y="134" width="536" height="78" as="geometry" />
        </mxCell>
        <mxCell id="VMAdAS11OgDW_Fi8vncO-12" value="" style="shape=image;verticalLabelPosition=bottom;labelBackgroundColor=default;verticalAlign=top;aspect=fixed;imageAspect=0;image=data:image/png,iVBORw0KGgoAAAANSUhEUgAAAWUAAABxCAYAAAANtbKCAAAACXBIWXMAAA7EAAAOxAGVKw4bAAAgAElEQVR4Xu2deVhTR/fHT8K+iKgILtCK4kIV97e2iAuKuC9t3UXrvlu1tvWnVV+s1Yp1qVrX1uqLr9b1dbdYtW5YtYpSVxQF9w0REAhrcn5/8CZvcuYmuUluIMJ8nuc8rd975szl5uZk7szcGRkiInA4HA7HJpBTgcPhcDglB0/KHA6HY0PwpMzhcDg2BE/KHA6HY0PwpMzhcDg2BE/KHA6HY0PwpMzhcDg2BE/KHA6HY0PwpMzhcDg2BE/KHA6HY0PwpMzhcDg2BE/KHA6HY0PwpMzhcDg2BE/KHA6HY0PwpMzhcDg2BE/KHA6HY0PwpMzhcDg2BE/KHA6HY0PwpMzhcCwiKysLsrOzge8sJw32VCgpsrOz4e+//4b79+/D69evIS0tDV6/fq35/9zcXCgsLITCwkJQKpWaGwARwd7eHhwcHET9183NDXx8fMDHxwe8vb3Bx8cHqlSpAlWqVCFnxOGULKmpqXD27Fk4c+YMxMfHQ0pKCqSkpEB6ejpUrVoVatSoAU2aNIHBgwdDw4YNaXGr8PTpU9i9ezecPXsWLl68CI8fP4b8/HwAAJDL5VChQgWoX78+NGvWDPr16wctWrQgEUoehUIBKpUK3N3d6SGTycrKkiSODlgCFBQU4OnTp3Hp0qUYERGB7733HsrlcgSAEjMvLy8MCwvDadOm4ebNmzEhIYGeNodjdXJycnDLli0YGhqKMpmMuU/1WdOmTfHYsWM0nGTExMRg+/btTf6etmzZEm/evEnDSUJubi6OGjUKR48ejUqlkh4WJD4+HuvVq4eVKlXChQsXYlZWFnURxYsXL7Bnz57o7u6O06dPx5cvX1IXsym2pFxQUID79u3DIUOGYIUKFZgPzxatSZMmuGTJEnz69Cn9czgcScnOzsbvvvsOK1asyNyHptiQIUMwNTWVhjebmzdv4vvvv8/UY4pVrlwZHz58SENbxP3797FZs2aaOvr374/5+fnUTYcVK1agk5MTc26LFi0yKTnv2rULvby8dOK4urri1KlTJckVVk/KSUlJOHPmTKxatSrzYb0tZmdnh507d8YrV67QP88q7N+/H3v37o116tTB+vXrY8+ePXH16tWYk5NDXQVRKpV44MABnDx5MrZs2RJr166N1apVwyZNmmDnzp3xn//8J967d48WM8jjx4/xxx9/xN69e2OzZs3Qz88Pa9Sogc2aNcMBAwbgunXr8PXr17QYRwSbNm2S9PtRt25dvH//Pq3GZNasWYMuLi5MfHPsH//4B+bm5tIqzCImJgYrVarE1NGtWzfBOlJSUrBbt26Mv7Z5eHjg6NGj8dy5c7S4hrS0NIyIiGDKapuTkxMOGTIEL1y4QIuLxmpJ+fr16zho0CC0s7NjTvxtNblcjlOmTMGCggL650pCYWEhDhgwgKlXbZUrV8atW7fSYhry8vJww4YNWKdOHaaskLVu3Rpv3LhBw+jw9OlTnDRpEtPCEDJXV1ecNWsW5uXl0TAcAR49eoSdOnVirqMUVrVqVbx69SqtUhQpKSnYo0cPJqalFhkZSasyCZVKhd98843BLpThw4frlDl+/DhWq1aN8TNkgYGBuGHDBp04R44cwerVqzO+hqxOnTr49ddf68QRg+RJ+dGjRzh48GCT+sM8PDzQ19eX0anVrVsXGzRooLH69etjYGAgBgQEYI0aNbBq1aro7u5uUt3mWNu2bTEzM5P+6RYzevRoBAD09fXFI0eOoEKhwHPnzuncDHZ2drhz505aFOPi4tDf3x8BAGUyGX788ce4ZcsWvHfvHioUClQoFHjhwgXs0KGDzt/i6uoq2DpQqVQYGRmpaSl5e3vjzJkz8dSpU/j8+XMsLCzElJQUjI6OxvLly+vE/OSTT0T38ZVVYmJiLO6qMGbVq1c3+XH65cuXGBgYyMTSNm9vb/Tx8WF0Y+bn52f2ffH69Wvs2rUrE5NaWFgYIhZ1l86cOdNgAjdkISEhiIiYlZWF48aNY46LNWdnZ+0/QxSSJWWlUomLFi3S+7hTrlw5DAsLw6lTp+Ivv/yCFy5cwIcPH2oeNy5cuMCUoZadnU1qFUalUmF6ejrevn0bT506hVu3bsW5c+diREQEBgUFSdJ679Gjh9k3mBBHjhxBAEA3Nzemm2Tt2rU6dTs6OuL169c1x6Ojo9HZ2RkBANu1a4cXL17UKq2LQqHADz/8UCdelSpV8M2bNxqfnJwc7NOnj6auadOmYXp6ulYUXWJjY9HBwUEn5owZM6gb579ERUUxycLPzw/Dw8Nx0KBBOGXKFPz2229x5syZOGTIEKxZs6aOryn2/vvvi+72ysrKwkaNGjExfHx88IsvvsC4uDid7+CDBw9w7ty5aG9vz5TRZ7///rtWjeK4cuWK5hp07dpV0/gQsrCwMExKSsIPPvgAAQADAgJwwoQJWLt2bcbXkIWEhGBsbCzWqlULAYoajp999hl27dqVaYQYsgoVKtA/xyiSJOXk5GRs1aoVc0LlypXD8ePH45EjR4w+0h44cIApr21Vq1alRcwmOzsbjx07hl9++aXBD9iYrV27loY2m6ZNmyIA4Pfff08P4eXLl5m6R4wYgYiIS5cuRYCi1vGKFStISWGErrW63vT0dAwODkYAwNq1a+Pt27dJaWHCw8N14rm5ufE+ZoJKpcKJEydqrlG5cuXwiy++EHWNL1++jL169TLrKXDChAk0nCDDhg3TKefm5oZLly412l137tw5dHNzY+oVskGDBtHiRgkLC8N27dppnuieP3+OTZo0YWIDAFarVg09PDzQ3t4ep0+fjgqFQhPn7t27uHLlSgwNDWXKUXN3d0e5XI6Ojo44efJkTElJ0cQpLCzEM2fO4P/93/8Z7RqpVq2appxYLE7K0dHR6OHhoXMiLi4uGBkZadKX8ueff2b+IG1r2bIlLSIJSqUS9+/fj+Hh4Sbf8FWrVhXdCjHEoUOHEKDoRhBqkSYkJDB116hRA3ft2oVyuRwdHBxwy5YttJheMjMzmXgffvghFhQUaLo36tati0+ePKFF9TJ//nwm5saNG6lbmUWpVOLQoUM116ZJkyaYlJRE3Yxy5coV7NixI3OtDZlMJsPY2FgaSofdu3frlGnVqpVJg4WbN29m6hUyT09Po0meUlhYSCV88uQJE1ttTZs2xcuXL9MiOiQkJOCwYcP0fudlMhkOGDDA6GeUl5eH69evZ3Kg2mrVqkWLGMWipPzNN98wJ1GvXj28du0adTXKvHnzmFjaFhERQYtIzrlz50xuOR86dIiGMZmePXsiAOCYMWPoIUREPHnyJFMvQFF/FQDgpk2baBGj0IE7FxcXHDNmDAIUtZCfPXtGixhk9erVzPlNnTqVupVZtFvI1atXt2heq0qlwlmzZjHX25DVq1dP79Pqq1evdPqI+/fvLziLwRhdunRh6hWymJgYWtRkMjIymLgAgM2bNzcp6R8+fJiJAWB6I3DXrl1MDADAoKAg6moUs5KyUqnECRMmMCdQs2ZNfPHiBXUXxfjx45l42jZnzhxaxCpkZGRo+lPF2KRJk2gIk0hNTUVHR0cEADx8+DA9jIiIP/74I1Ov2saNG0fdjZKbm8vEUZuTkxPGx8fTIkZZvHgxE+vTTz+lbmWSb7/9Vue6REdHUxez2LZtm94xHCFbt24dDYGIiB9//LHGZ8SIEahSqaiLKP766y+mTiHr06cPLWoyCoWCiQvwv4E+sbx69YqJAfC/gT6xJCcnMzEAin4kTMWspKxuUWmbvb292VNwEBF79erFxNQ2c1qD5lJQUICtW7dmzkHIOnfuTIubhPqxz8XFRaf/S5shQ4Yw9QIANmzYUG/rxxAPHjxgYqlt5cqV1F0U06ZNY2KNHz+eupU5aEvMzc1N9IC1GGJiYkQPXL/zzjvM/bJx40bN8ZCQEKMvYBijZcuWTL3U5HK5zkC1ORQUFDBxAUxPynl5eUwMANOTcnp6OhMDoGh+tqmYvCDR8uXLYd26dVSGMWPGQFBQEJVF8+jRIyrp4O/vTyWrYW9vD9u3bwdvb296iOHFixdUMokjR44AAEDbtm3BxcWFHC0iNjaWSmBvbw8bN24ER0dHesgoiYmJVAIAgLCwMJg4cSKVRXHjxg0qlfn1RFJTU2H48OE6WkBAALi6uupoltCxY0dYvnw5lQV5+PAhREdHa/59584dmDRpEgAAvPPOO7B7925wcHDQHDeHgQMHUolBpVJBnz59ICEhgR6CxMREmD17NuTm5tJDOtjb24NMJqOyyTg6Olr8NwOApJ+pSS3lP/74Q/BXWSaTYWJiInU3icqVKzNxte3Ro0e0iNWZMWMGcx7UWrRoQYuZhPoV1jVr1tBDiFj08gatE0D8iLoQQoNy9vb2eOfOHeoqCpVKhd7e3kzMPXv2UNcyBZ3NAADYsWNH6iYJQt2JQqZuueXl5WlmMLi6ujLTMM3l5cuXoqfIubi4YGhoKEZERGCHDh0wICAAAYqeJsQMoNNpmACmt5QRUXC+uKktZURkYgCY11IWnZRzcnI0c/aotW7dmrqbhL7+IbU5OjpKOidYLLdv32bOhVrv3r1pMZNISkrC/fv36x2c+PXXX5k67ezs8PHjx9RVNEIDMv3796duoomPj2fiAYBF5/i28/z5c81YgbY1bNiQukqCQqHAd955h6lPyK5evap5UQkATJq5I4bOnTszdYq1hg0bil4MzNXVlSlvTlIWum7mJGWhBqs5SVl098V3330H9+7dozIAAIwYMYJKJpGcnEwlHfz9/UEuF32qklGnTh3w8vKisg5+fn5UMgl/f3/o3r072NsLr6J68uRJKkFoaChUr16dyqJQqVRw9uxZKkPv3r2pJJqjR49SCd577z2zz7E0sG7dOs2SltokJCRAYWEhlS3GxcUFFi1aRGVBBg4cCOvXrwcAgM6dO4vqcjAFc+ONHTsWLly4AHXr1qWHBJGi2wEAoFy5clQyC/zvcsKWIirTvXnzBn744QcqAwBAeHg4REREUNkkkpKSqKRDcfYnU4wlFkuTsjGEknKXLl2oJJr4+HjIyMjQ0WQyGYSGhupopiCUlDt06EClMsXx48epBAAA+fn5cOjQISpLQp8+fUR9V65fvw4AAM7OzvDjjz+So5bTq1cvk/pYPTw8YPv27bBmzRpwdnamh/UiVVJ2cnKiklkIJWUhzRiiknJ0dDS8efOGyjBs2DDYu3evxa1YW07KFStWpJIOrVq1opJkvHjxAm7fvk1lixLeqVOnqAQNGzY0+nfqQ6FQwJkzZ6hs0TmWBu7evUslDfPnz6eSJMjlchg7diyV9fL1119DzZo1qWwx7u7uMGrUKCoLUr9+fYiLi4O+ffvSQ0aRKimbkziFEIpjZ2dHJaOIyqb79u3T+be/vz/s2bMHfvnlF70zBkxB32wANZbM6rCUV69eUUmDv78/NG/enMqSITTrwsvLC+rXr09l0QglZUtayQcPHoScnBwdzc3NzaKYbzu5ubnw7NkzKmu4ePEibN++ncqSMHz4cL1dYdrUrFkTvvzySypLxpw5cyAgIIDKOvTu3RvOnz9v1E8fUiVllUpFJZNRKpVUAgArJmV7e3twdnaG4OBg2LBhAyQkJECvXr2om9kITY3RpmnTplQqNp4/f04lDeb8upuCUFJu27at2VOBEFGwVdu2bVsqiUYouXTv3t2kx9fShpgv4vjx4+Hp06dUthgvLy9o3bo1lRm8vLwke2wXomLFinD48GHBhCuXy2HBggWwc+dOi7ZSkiop60uopqBvnMCsXgTtUT9DWHP2g5+fHzNqqTY7Ozu9L1VYm8ePHzPno21xcXG0iKSoFynStlWrVlE30fz9999MPLlcbtIaJdpkZmZqXvXWtrI+FQ7R+BRPAMDQ0FC9s24sYeXKlUxd1Dw9PWkxq6BQKHDJkiWaeh0dHfW+uWoqQkuMmjP7om7dukwcU2dfvHnzhokBANimTRvqahTRadysjC+C7OxsePz4MZU1vPfee5J0kZiDvsEagKI+U2u24DMyMuDvv/+mskWtWqGui0aNGkGFChWoLIq9e/cyk/w9PDygU6dOOlpZJDg4mEoMJ06cgClTplDZYnr27EklhvT0dINdc1KRl5cH//73vzX/XrlyJXTu3FnLw3yk6HYAACgoKKCSydDvgRpz8qbpJSTm5s2bgh3kaqyZ+IyhLynL5XJYvHgxlSUlNjaWeazy8vKCwMBAHc0UhJKymEddfWzevJlK0LdvX70j6ElJSTBt2jQ4f/48PVTq6N69O5UEWbVqleAbspbg5+cHtWvXpjLDnTt3qCQp2dnZ0KVLF7hy5QoAFA2Kjx49mniZT15eHpXMQqFQUMlk9MUQ05VFKfGkfO3aNSrpUFJJOSMjA/bs2UNlACiadWLtLd2FEmhISIhF/cmnT5+mMoSEhFBJFE+fPoVjx45RGYYOHUolDbNnz4alS5fCzz//TA+VOgYPHgzvvvsulQWZNGmS4OdtCWJ+bB88eEAlycjLy4OePXvCuXPnNNpnn32m5WE5Qq1TQw08fWRlZVHJ5DiZmZlUAoC3tKVsq0l5/fr1ghfaw8MD5s2bR2XJEfqSWjL97ubNm5CSkkJls5NydHQ08/hYt25daNmypY6mRqFQwN69ewHA/DrfJhwdHSEyMpLKghQUFMAnn3wCDx8+pIfMpk2bNlRisFZSLiwshD59+ug8aXp6eko6OQBAOCmnpaVRySBKpVIwKRuaPSOEvnqfPn2qdxBQL7pdzMVP+/btmc5xtclkMp1tioqLgoICwT0DZTJZsQxiZWZmCq4f8Ndff1FX0axatYqJFxAQQN1EIzQ4smjRIuqmQf26uIuLi9kDi28bhYWFWK9ePeY66bPWrVtLNqB+9+5dJj61sWPH0mKSMGLECKauHj16UDeLKCwsFHyt2c7OzqS1qp89e8bEUNuZM2eou1527tzJlFeb0DrphgZ4SzwpGxqlrlu3LnUvFhYsWMCcCwCYtTOtOcTExDB1lytXTnAHBrH07duXiUl3/hVLYmIiE0smkxlc60K9Z9rIkSPpoVJNbGys4A+sPjP0w2YKKpUKy5Urx8TXti5dutBiFrNp0yamHgDApUuXUleL0LdQFwDgwIEDqbtezp8/z5RXW8OGDUUv9r9ixQqmvLYtX75c43v+/HkMDAzE3bt3a0X4HyWalB89esScvLYNGDCAFrE68fHxggvJdOzYUbJWjDGEVqezdN3mKlWqMDH/9a9/UTdRHDx4kInVqFEj6qbht99+QwBABwcHs1eie5sRWpVPn1WoUAEzMjJoCLMwtraxOQuwG+LGjRuCiwQBAJ48eZK6W8SlS5eYOrRN7P6Z27dvZ8pq25QpU2gRQSZPnsyU1TY7Ozv8+uuvMSQkBAGKNqM9deoUDYOIJZyU9+7dy5y8tgltImpNcnNzMSgoiDmPxo0bF+sjt3rjUm2LioqibqK5efMmEw8A8OHDh9RVFOqdt7WtX79+1A0RizaprVOnDgIATp48mR4uEyiVSoPddNQWLlxIQ5iFsd18/Pz8aBGLMLRRxdOnT6m7Rezfv5+pQ9vs7e3x6NGjtBjDzJkzmbLUtm7dSosxmLIy3gcffGDwqbJEk/Ls2bOZE9Y2qX9dDZGfn6+zLY72BUxLS6PuViMzM1NwndgLFy5QV9EI9Sebs6GjmmfPnqFcLteJN3HiROqGKpUKBwwYgABFe8RlZWVRlzLDs2fPdPbBM2SdOnWixc1izZo1TGxtc3JyokXM5tatW3o3IXVzc6PuFpOcnIzu7u5MXdrm6elpdHs6ugu7kLm6uhp9wtu3bx/znRCycePGMbu/UEo0KXft2pU5abU5OjoW25t8OTk5gucSGhqKmZmZ1N2qqHe21rby5csbHBgwRr9+/ZiYo0ePpm4mMXDgQJ149E2q7OxsjIiIQICi/nBLtgorLRw/flzUF9ecbemFEHqioSbVQPqUKVOY2GqzZEDZEEKb9arNxcUFN2/eTIswHD16VLC7Um0ymQznzJkjat9CQ/3Kzs7Oond3L9GkbKjlEBwcTN2twps3bzAsLIypv0ePHqJ2P5AaoQ1ILVmAHhGxUaNGTMyDBw9SN5PIyMjQ7BQBUHTTrVmzBo8fP46LFi3CGjVqIABg5cqV8dKlS7R4mSUyMpL5LKhJ1a0gNCBLzdRdy/Wh7isVMnMWeheDSqXC0NBQpj5/f3+TdlLZsWOH4I+lh4cH7tu3j7obROjHqUaNGiYtyVBiSVnf7q9qmz59Oi0iOf/5z3+YqW8ODg4YFRUl6pfRGpw/f17nBvH29sZbt25RN5OYNGmSzt/YrVs3i1reah4+fCg4q0Ntffr0waSkJFqsTKNUKrFt27bMtdK2Vq1a0WJmkZ+fL5hstO3evXu0mFkI7d6htvDwcOouGUlJSTrdGJ06dcLU1FTqZhQ64yowMFD0DijaFBYW6owfhIeH46tXr6ibQUosKQttc6RtlrbkDJGcnCzYXeHv74/nz5+n7sXO4cOHcfDgwTht2jRMTk6mh00mJycHv/vuOxw4cCCuXLnSaJ+WqVy6dAl/+OEHHDVqFI4aNQqXL1+O8fHx1I3zX5KTk9HFxYW5/9QmdsRfDIaSJQDgtWvXaBGzMDT9rm/fvtRdUlatWoUymQxnzZpl9gwppVKJbdq0QQDAjz76yKJunZcvX2LlypVxxowZZp1PiSVlQ1NI5HK55INr+fn5eODAARw4cKDgF6Jfv36Ynp5Oi3E4VqF79+7MPag2KX/QGjduzMTXNlMe8/WhVCr1DvIBCL88ISUqlcqkFz308fDhQ1y0aJEkT8mmvMBCMb4atpUwtChN06ZNwdPTk8omk5qaCpcuXYLdu3fD7t274fXr19QFgoKCYNmyZdC+fXt6iMOxGnXq1KESABStAtioUSMqm42HhweVdJBiTeWsrCyDa0WYuwqhWGQymSSv7vv5+Um28H/lypWpJJoSScq5ubmalaOEMCVB3r17Fy5evAjJycnw/PlzSElJgZcvX8KdO3cMLglauXJlmDdvHowcOdKslZw4HEu4desWlcDZ2VmzoalUFEdSNrZamyUL2ZdFSiQpx8bGCu70qyYsLIxKOiAibN++HebNmwc3b96khw1SsWJFGDt2LHz11VdQvnx5epjDsTovX74UXGFv5cqVopbcNIXiSMrG1iOWaoeQskKJJOU//viDShqcnJz0rjQGAHDu3DmYMGGCwZa2EA0aNIDPPvsMIiIiSmzRfA4HoGipTtooWbBgAYwcOVJHkwJbSMpi9gzk/I8SuVr6Fo8HKNqxQV/S3L59OwwZMoS5oQ0REhICc+fOhXbt2tFDHE6xs3fvXtixY4fm387OzrBixQrRuz+bSrly5aikgxRJmW7GQDFnTeGyTLEn5YyMDIiLi6OyBn1bCV26dAkiIiJMXps0LS0NPvzwQypzOMXOyZMnYfDgwZp/BwQEwM6dO6Fx48ZaXtJiqKVsZ2cHbm5uVDYZQ4N8AEUDcRzxFPtP2KlTpwz+snbp0oVKAAAQExNjckIGALhx4wZMnTqVyhxOsfLbb79Bly5dNAuq9+7dG+Li4qyakAEMJ+WqVasWSyvWWNLm6GL9T4RgqOvC19cXGjRoQGUAAJg1axbcvXsX1q5da/KUoXXr1hnsx+ZwrEVubi58+eWX0K1bN8jJyQF/f3/YsWMH7Ny502DClApD3RfVq1enklkYS7qGGmEclmJPyoaSo75WsppatWrBmDFj4MqVK7BkyRKTRnWnTJnCbw5OsTNhwgRYvHgxuLu7Q1RUFNy6dQv69OlD3ayGoa4DX19fKpkF3RaMYs4TblmmWJPyixcv4Pr161TWIHbrcZlMBp9//jlER0eLfvy6du2a5HNAORxjrFu3DtavXw93796Fr776SpKBNVMwNCheXC1lY/OYObqIy2gSceTIESppcHZ2hvDwcCobpH///iZtYjp//nyDNymHIzX29vYwatQoi97wsgRD97tUSdlYS/nNmzdU4higWJPy/v37qaShQ4cO4OrqSmWjTJ8+3eC8Zm2ePHkCmzZtojKHU2oxlJT1veptKsaScnp6OpU4Bii2pJyXl2ewpdyzZ08qicLOzg5++ukn0RPUFy5cyPu4OGUGQ10HwcHBVDILY90XQmvOcPRTbEn5xIkTmulAFLlcDt26daOyaAIDA2Hs2LFUFiQ5ORn27NlDZQ6nVJKWlkYlACiaI+3t7U1lszDWUk5OTqYSxwDFlpQPHDhAJQ0tW7YEHx8fKptEZGSk6ClGy5cvpxKHUyp5+vQplQBAulYygPGWcmJiIpU4Bii2pGyoP7l3795UMplKlSrBpEmTqCzI2bNnDb5VyOGUFp48eUIlAJA2KRtrKWdnZ+v9ceCwFEtSvnLlit5lNGUyGXz88cdUNoupU6eKXiaQt5Y5ZQF9SVnKpQeMJWUAgDt37lCJo4diScqGWsktWrSQbBJ7pUqVYNy4cVQWZNu2bfzXm1PqEbrHfX19ISgoiMpmY6z7AoAnZVMolqS8d+9eKmno168flSxiypQpot70KygogFWrVlGZwyk1PH/+HLKzs6kM/fv3N/imn6mIaSnzfmXxWD0p37lzB+Lj46kMAEWzLvr27Utli6hWrRoMHDiQyoKsXbsWFAoFlTmcUsGJEyeoBAAAAwYMoJJFiEnKV69epRJHD1ZPyr/++iuVNLRp0waqVatGZYv5/PPPqSTI69evITo6msocTqlAaPGvFi1aQNOmTalsEWK6L06fPg05OTlU5ghg9aS8bds2Kmno378/lSShYcOG0KFDByoLsmzZMlE3lSU8efIEzpw5wxdE4hQrQkn5iy++oJLFiGkp5+bmGlyMjPM/rJqU4+PjISEhgcoAULTjgdRdF9qIbS3fuXPHKi+TFBQUwMaNG6FZs2bg6+sLrVu3hp07d1I3DscqJCUlwf3793W0gIAA+Oijj3Q0KfzOJ8EAAAhlSURBVBCTlAEAdu/eTSWOAFZNyoa6Lrp37w6enp5UloyOHTtCYGAglQWZO3eupK3lS5cuQfPmzWH48OFw+fJlACha17Zdu3bEk8OxDkINgIULF1pl53ax350tW7bonRrL0QKthEqlwnfffRcBQND27dtHi0jO2rVrmXr12c6dO2lxs9iwYQPa2dkx8X/99VfqypGIuLg4nDFjBoaHh2NISAhOmDABr127Rt3eClQqFR44cADv3btHD4lGoVCgt7e3zv3Xrl076iYZt27dYu53fTZx4kRanEOwWlKOjY1lPhC1eXt7Y0FBAS0iOQqFAr28vJj6hczf3x9zcnJoCJPYunUryuVyJva4ceOoK0ci5s+fj/b29sw1t7Ozw+XLl+Py5ctpEZvmq6++QgDA0NBQekg0s2bN0rkWzZo1w5cvX1I3SenUqRPzGQiZnZ0d7tixgxbXkJeXh2vXrsURI0bQQ2UGqyXlCRMmMB+I2qZNm0bdrca8efOY+vXZ3LlzaXHR/Pnnn4LJoU+fPlhYWEjdORKwY8cO5noLmaEkYEv8/PPPOucdGxtLXYwSExOj0zDo0KEDZmZmUjfJOX36NHPd9ZmDgwNGR0ejSqXSlE9OTsaoqCj08/NDAMCwsDCt6GULqyTlvLw8rFSpEvNhqO369eu0iNVIS0tDDw8P5hyEzMnJCS9fvkxDGCUtLU2wq6Zbt26Yn59P3TkSoFKpsHr16sw1FzIvLy/MysqiIWyK48ePo4ODg855BwQE4Js3b6irXg4ePIhubm6a8p9++mmx3n8hISHMtTdkPj4+2KxZM/Tx8dHRnZ2dcdOmTTR8mcEqSXn79u3MB6C24OBg6m51ZsyYwZyHPgsICMCMjAwaQi+ZmZmCN+OAAQMwNzeXunMk4u7du8w1N2S23I1x69Yt9PT0ZM4ZALBfv36inrTWrVunM5YxZ84c6mJ1Dh06xJy/qVavXj28evUqDV2msEpSDg8PZy622jZu3Ejdrc7r16+xQoUKzLnos+DgYExLS6NhGFJTUwUT8uzZs6krR2J+++035robslatWtEQNkFKSgrWqlWLOV9tCw0NxefPn9OiiFg0bqLuhwYAdHV1xW3btlG3YqNx48bM+Yu1oUOH2vwTTXEgeVJ+8OCB4GAXAGCFChVQoVDQIsXCkiVLmPMxZEFBQXj+/HkaBhER8/Pz8YcffmASvYuLC0ZHR1N3jhW4efMm85kZMjs7u2LpWzWF3NxcbNmyJXOuQlalShVcsGABXrp0CR89eoQnT57EqKgorFatmsbH398f4+PjaTXFiqGnZH3m7u6OmzdvpqHKLJIn5cjISOaiq23q1KnUvdjIy8vDunXrMudkzDp37oyRkZG4YcMG/P7773Ho0KE6XwS1vf/++5iQkECr5ViJwsJC5kfRmF28eJGGKVFMbe0bsrCwMHz16hWtothRKpVYu3Zt5vz0WZMmTfDOnTs0TJlG0qRsaG6yXC7HxMREWqRYuXDhguAcYkvM3t4e586dWyxT/Di6rF69mvk8DNmWLVtoiBJn5MiRzHmaap9//rmofufigs4i0WeTJk3i4y4CSJqUf//9d+bCq23evHnUvUQwZYqcMevevXuZH5QoSZRKJQ4bNoz5XNTWpUsX7NKli2aa1erVq2mIEicnJ0dwXEKMValSBQ8dOkRDljh5eXno6+vLnK/aKlasiHv37qXFOP9F0qTcr18/5gNwcHDAxYsXU9cSZcyYMcx5mmLt27fX29/MKX527NiBPXr0wGrVqmHlypUxNDRU543R0NBQBACMiorSKmU7KBQK7NatG3OfGbJ+/fphSkoKDWUzLFu2jDlnAMCWLVviw4cPqTtHC8mS8suXL9HJyUnnA2jQoAHGxcVR1xJHqVTi7NmzTerK8Pb2xnHjxpk1oZ9TsgQHByOAbU+LKygowBkzZjDfIWpBQUF44sQJWtzmyM7O1nmbVi6X48yZM3k3nwgkS8qHDx9GAECZTIbNmzfHHTt2oFKppG42xcWLF3HQoEHo6urK3PwODg7YoEEDHDt2LB4/ftym+uw4plG/fn0EANy6dSs9ZHPcu3cP+/fvjy4uLpp70c7ODsPCwnD//v02/53SRt1VWKVKFTx69Cg9zNGDDFHkEk9GQESIi4uD2rVrQ/ny5elhmyY/Px+ePHkCz58/BycnJ/D09ARfX19wdHSkrpy3EF9fX3jy5AkcPXoUwsLC6GGbJCcnBxITE0GlUkFgYCA4OTlRF5snPT0dRowYAatXrwYfHx96mKMHyZIyh2NrqPenK1euHCAixMfHQ6NGjYgXh2Nb2FOBwykt3Lx5EwCKnuLkcjnUqFFD14HDsUF4UuaUWv766y/N/zds2PCt61bjlE14UuaUWnbt2qX5/9atW2sd4XBsF56UOaWSFy9ewOnTpzX/btWqldZRDsd24UmZUyrZvXu3ZkNPV1dX0bubczgljVU3TuVwSoodO3Zo/r9v3768P5nz1sCTMqfUcenSJZ2ui1GjRmkd5XBsG959wSl1TJs2DRARGjduDAAAwcHBxIPDsV14UuaUKvbs2aNpJUdFRZGjHI7tw9/o45QaCgoKoH79+pCYmAjt27eHY8eOURcOx+bhfcqcUsPUqVMhMTERHB0dYdmyZfQwh/NWwJMyp1Tw008/wapVqwAAYP78+RAUFEQ8OJy3A959wXnriY2Nhfbt20N+fj60b98efv/9d5DLeXuD83bCkzLnrSYhIQFCQkIgNTUVAgMD4c8//wRPT0/qxuG8NfDmBOetJioqClJTU6FOnToQExPDEzLnrYdPieO81YwYMQLc3d0hMjISKlWqRA9zOG8dvPuCw+FwbAjefcHhcDg2BE/KHA6HY0P8P9vDZPLDIDMyAAAAAElFTkSuQmCC;fillColor=#b0e3e6;strokeColor=#0e8088;" parent="1" vertex="1">
          <mxGeometry x="398" y="154" width="31.59" height="10" as="geometry" />
        </mxCell>
        <mxCell id="Ahbohu0YX-k4-D2E7kMl-5" value="" style="shape=image;verticalLabelPosition=bottom;labelBackgroundColor=default;verticalAlign=top;aspect=fixed;imageAspect=0;image=data:image/png,iVBORw0KGgoAAAANSUhEUgAAAKIAAACKCAYAAAApDZFAAAAACXBIWXMAAA7EAAAOxAGVKw4bAAAckklEQVR4Xu2deVRTZ/rHvywCIggEUYEgVUHFrYoLigLqwEzdUNCqxG3aYq2ijlKt4jjH497Reo51t624110UtXZxryuCWq2CjjiKIMoiArIFwvP7g1/u3PsmgQQSlng/59xzcp/neW8S8uXed31eEyIiiIjUMaasQUSkLhCFKFIvEIUoUi8QhShSLxCFKFIvEIUoUi8QhShSL6gXQiwoKMCmTZtYs8h7hDlrqG2Ki4sRHByM8+fPIyMjA0uWLGFDRN4DTOpyZKW0tBShoaE4deoUZ1uzZg3mzp3LixJ5H6gzISoUCshkMhw6dAgAYGJiAuVH2bZtGz7//HN+uIiRUyd1RCLClClTOBGOHTsWN2/ehLOzMwBg2rRp2L9/P7+IiLFDdcDMmTMJAAGg6dOnk0KhICKip0+fkqenJwEgc3Nzio2NZUqKGCu1LsSoqChOhIsXL2bdlJGRQT169CAAZGlpSefOnWNDdKaoqIi2bdtGs2fPpokTJ9KQIUOoV69e5ObmRhYWFjRr1iy2iEgtU6tCXLFiBQEgU1NT2rRpE+vmyM/Pp8DAQAJANjY2dP36dTZEJ65du8aJX93x1VdfsUVEaplaE+K3335LAMjCwoIOHjzIulUoKSmhcePGEQBycHCgu3fvsiE68eDBA7p8+TIdO3aMvLy8BEI8c+YMGy5Sy9SKELdv304mJiZkY2NDv/76K+vWSHl5OVefbN68OT169IgNqRbKuy0AMjMzo9zcXDZEpJYxuBDj4+PJ1NSUmjVrRnFxcaxbK1auXEkAqF27dlRWVsa6dUIul5O1tTUnxB49erAhInWAwUdWevTogRUrVmDkyJHo0KED69aKqKgotGzZEq1bt4aZmRnr1olbt26hsLCQOw8ICOB5ReoKgwsRABYsWMCadOaTTz5hTdXi0qVLgnN/f3/BuUjdUCcd2nUJX4gmJibo378/zytSV9TZEF9dUFZWBgcHB7x79w4A0KVLF9y7d4+JEqkL3qs74u3btzkRAuJjuT7xXgnx4sWLgnOxoVJ/eK+EyDZU/Pz8BOcidUed1xFzc3ORmJiIJ0+eIDc3F3l5eXj37h3MzMxgb28PFxcXtG/fHp07d0ajRo3Y4lqjUCggkUiQl5cHAGjXrh0ePXrERKmiUCjw+PFjNG3aFK6urqxbRF8IuxUNT2pqKu3YsYNkMhlJpVLBUFtlh42NDQ0ZMoT27dtH5eXl7GWrJD4+XnC9KVOmsCECEhISaOjQoWRlZcWV8fT0rPG4t4h6akWIBQUFtHv3bgoICFARWHWOgIAAKioqYt+mUtauXSu4xp49e9gQIqqYqRMeHk4mJibUt29f2rp1K12/fp1++uknkkqlJJFIKCsriy0mUkMMKsScnBxavHgx2dnZqYippkdkZCT7dpUSHBwsKP/8+XM2hJ49e0be3t7k5OREMTExnP3GjRvUtWtXruzWrVt5pUT0gUFGVkpKSrBmzRp88803yM3NFfjMzc3Rvn17ODk5wc7ODjY2NsjNzUV2djaSk5ORkZEhiNfEyZMnsXbtWtaslvLycvz+++/c+QcffIBWrVrxIoDExEQEBgbCxcUFCQkJcHNzAwDI5XKMGDECr1+/5mK1/YwiOsAqs6ZcuHCB2rdvL7j7dOvWjVatWkXx8fFUXFzMFhGQnJxMe/fuJZlMRmZmZip3QuVhampKpaWlbHG13LlzR1B20qRJKn4nJycKCgqigoICgS8hIUHlvU+dOiWIEak5ehOiQqGguXPnCn6woUOHVnvGDRHR1atXydLSUkUIQMVMHG1Zt26doOwPP/zA+a5cuUJ2dnYUHBys9p8kPz+fWrZsyZUNDQ1lQ0T0gF6EmJ+fT8OHD+d+LGdnZ73dNf7xj3+oiBAA/f3vf2dDNRISEiIo+5///IeIiE6fPk3W1tY0cuRIksvlTKn/kZaWRtu2baNffvmFdYnoiRoL8fnz54KKvI+PD71+/ZoNqzZ79+5VESEAunHjBhuqlvLycnJ0dOTKOTs7U1lZGS1fvpxMTU1pxowZWj/iRQxHjYR4/fp1atGiBfcj+/r6qtSxasr69etVRDhw4EA2TCP3798XlO3QoQN1796dmjZtSocPH2bDReqIarear1y5gqCgIBQXFwOomMly6tQpWFtbM5E1IzY2VnBuYmKClStXCmyVwY4vJyUlAQA6d+6MmzdvorS0FEOGDIGdnZ0gTqSWYZWpDc+fP6fmzZtzdxkbGxv673//y4bVmPj4eDIxMRHc0cLDw9mwShk9erSg/NChQ8nT05NMTU05m6WlJYWEhNDt27fZ4iK1hM5CfPfuHX344YeCH3fjxo1smF4YOHCg4H2cnZ0pOzubDasU/j+MVCrl7Onp6bRmzRpydXXl/FZWVrR9+3ZeaZHaQichlpeX06hRowTi8PPzq9bYb1XExMQI3sfc3JwuXLjAhlXKw4cPBdeYOHEiG0Lp6enUu3dvQZw2y11F9ItOQly8eLHgB2vcuDE9fvyYDasxmZmZgkYQgEoX5Gtiy5YtgmtoutulpKQIOs99fX3ZEBEDo7UQL126pFJfW7ZsGRumF0JDQwXvoy41iTYoF+grjydPnrAhHMqcOwBIIpGwbiIiOnLkiNihbSC0EqJcLqdOnToJftTGjRvrXF/Thk2bNnHvYWlpSVu2bGFDtMbZ2Zm7louLC+sW4O7uzsV6enqybiIiGjRoEPXu3Zs1i+gBrYT473//WyBCQPfWq7ZIJBJydHSksWPHVnoHq4pHjx4JPm9YWBgbwpGXlye423/88cdsCGVmZpKZmRktXbqUdYnogSr7EXNzc7Fq1SrWjJkzZ7ImvZCamorGjRuzZp1hlwVUtlAqNzcXxJuo3rFjR563gr1798LU1BSffvop6xLRA1WuWdmwYQPevn0rsAUEBKBr164Cm77QhwgB3YQolUoFHdps57ZcLsfatWshk8nE5QIGolIhFhQUYN26dawZ4eHhrKnewReio6MjvLy8eF5V/vKXv3Cvnz59yvMACxcuRGpqKr788kuBXUSPsM9qPrt27VKpGwKg9PR0NrRekZqaKvi86voPWVJSUsjW1paAiilmWVlZVFxcTMuWLSMA9OWXX7JFRPRIpUJkRzYAkJeXFxtW7ygpKeH6IS0sLCg+Pp4NUUtCQgJ16dKFgIp0debm5mRmZkbz5s0zSKe9yP/QuJz0+fPnaN26taASDwARERHYuHGjwFYfefbsGU6dOoX+/fujW7durFsjpaWliIuLw927d2FhYYEBAwbA09OTDRPRMxqFuHXrVkybNo0148iRIxg1ahRrFhGpERobK2fPnmVNAIC+ffuyJhGRGqNWiESECxcusGaYmZmhZcuWrNmglJeXY/fu3fDx8YG1tTXOnz/PhogYAWo7tJ89e4Y3b96wZjg5OcHUVK12DcLNmzcRHh6OP//8k7M5OTnxIkSMBbVCVM5iZmnRogVrMhinT59GSEgISktLOZujoyM6d+7MixIxFtTe3hITE1kTANTaY7m8vBwRERECEQIVIzomJiYCm4hxoFaIqamprAkAYGFhwZoMwq1bt/D8+XPWjEGDBrEmESNBrRDz8/NZEwCojDkbiqNHj7ImAEBQUBBrEjES1ApRmUOQpTaEWFZWpnZnUjc3N7Rr1441ixgJaoVYUlLCmgAAL168YE1658SJE2qrBuLd0LhR22q2tbVlTQAq7ohPnjyBh4cH69Ibq1evZk0AgMDAQNYkogX79++HXC5nzQgJCUHTpk1Zs96Ij4/HgwcPWDM6deqEnj17smaonfQwffp0lckOymPfvn1suN5gV+4pD1NTU8rMzGTDRbTA3t5e5e8JgJKSkthQvcIm5FIec+fOZUOJSMMMbeVO8uo4deoUZDIZa64xcrkcUVFRrBlAxTZqzZo1Y80iOvD5558LBiPs7e15Xv3Tp08ffPHFF9x5YmKiymRlAawyiYhOnDihomTlYWVlRW/evGGL1JiFCxeqvJfyWLRoERsuoiXKO2JNN9NUhy67uv7www+V3hHVNlYqmzZVXFyM7du3s+YacevWLY11QwD429/+xppE6pCSkhIMHjwYdnZ2GDp0KOuuFmqF2KpVq0obJMuWLcPLly9Zc7VISUnBiBEjUFZWxroAABKJRJzxU8/YsWMHfv75ZwDAzz//rLYxpCtqhQgA48aNY00ceXl5mD59usqkWV15+/YthgwZgvT0dNbFERwcXOOtcUX0C3/iiUwm08uIm0YhymSySsd1T5w4oXbirLY8efIE/fv3V9vE5yNOwq1/hIaG4tdff8XBgwexa9cu1l092Eojn0mTJqk0HNhj4sSJlJOTwxatlNjYWMGWFz4+PhQeHq5y7WbNmlWaUlikagzZWNGFajVWlKxYsaLKxJt79uxBx44dsWPHDo1j1ABARDh9+jT8/f0RHByM3NxcmJqa4p///CeuXLmC+/fvs0UQFhZWo23PRBoOavsRlUilUkRHRyMsLKzS+mB6ejo+/fRTRERE4KOPPkKHDh3g6uoKKysrPHnyBI8fP8bdu3cF64XbtGmD6OhoBAQEIDU1FXFxcbwrVjBp0iTWJGKkVCpEABg7dizS0tK0WlxeVFSEmJgY1iygefPmWLRoEb744gvubnfo0CEVoffo0UP9UJCIUVKlEAEgMjIS7u7umDZtGjIzM1m3VtjZ2SEyMhKRkZGwsbER+H788UfBOWC43Dr6IicnBxs3bkRiYiKkUilkMpna/te0tDTExMTg3r17yM/Ph1QqRc+ePREaGqq22pGTk4OjR4/izp07yM7OhqurK7p27Ypx48bB0tKSDa8VLl68iDNnziA1NRWtW7fG8OHD4ePjw4bVDKbOWCkZGRkUEREh2C6issPa2prGjh1Lx44d07iJ471791TKNWvWTGN8faCgoIC8vb3J09OTxo8fT9bW1gQI8zi+e/eOIiMjyczMjNq1a0dhYWEkk8nIxcWFAJCbmxs9fPiQiy8tLaXly5eTpaUlubu708cff0yTJk2i1q1bE1CRtvnq1atcvLbUpLGSk5NDQUFBZGFhQX5+fjR58mQuG8bMmTPZ8EqpqrGikxCVyOVyio2Npfnz59OECRNo0KBB1K1bN/Lz86OQkBD617/+RTExMVptdTFz5kwVIa5du5YNq1d89tln1LlzZ8rLyyMioiVLlnCf/cKFC5SRkUGdOnWiLl26qKRbzsnJ4ZKCurm5UXFxMeXl5ZGvry+1adOGTp48KcgqUVxcTH369CEA1LJlS8rIyOBdrWqqK8Tk5GTq0KED9enThxITEzk7P0WhLimeDSJEfZGfn09NmzYViNDNza1e3w3T0tKoUaNGFBsby9kOHz7Mff4JEybQhx9+SIGBgVRYWMgr+T+ioqK4+JMnT9KgQYOoR48eGrvB+MlLDxw4wLorpTpCLCwspPbt25Ovr6/Kdzhz5gz3Wdg9DSujKiFW2n1jaLZv364yG3zJkiWwsrIS2OoTmzdvhoODg2CMNS0tjXu9d+9e5Ofn49ChQxpT7PG/n0wmw/379xETE6NxRgy/bnjnzh2exzB89dVXyM7ORmxsrMp34C8z1sfQnhKtGiuGQJlzkI+Xl1e977I5cuQIhg4dKphSxe96sra2RkxMDBwcHDgby7Nnz7jXhYWFiI2N5bblVQe/24vN3ahvkpOTsXnzZmzYsAGOjo6sG1evXuVe63Npb50JcfPmzYKlB2ZmZvj+++/r/bhycHAwJk6cKLBduXKFe71gwYIqk5jy72pTpkzBgAED/udUwx9//MG9NvS6nbKyMsycORNTp05lXQCEO3lV9bl1gn1W1wZZWVnk4OAgqBsaaocCQ/P06VPuO9jY2HANGE3k5uZyu16ZmprS8+fP2RABJSUl1KRJEy6+thor6nj9+jX3XRs3bkwlJSVsiEbqZR1x/vz5yMnJ4c79/f2xcOFCXkTDgX+HGDx4sMb1PkquXr2K8vJyABWzmFu1asVECLl48SIKCgoAAD179qzTlCv8Gdb9+vXTy6wbJVoLMT09HcePH6/xSr6LFy8iOjqaO2/VqhV+/PHHWs2po0/4j+WBAwfyPOrhC5efLlkT/KW1ISEhPE/tw//sAQEB/3PoA/YWyRITEyPYY8XS0pLmzJlTrcVMr169IqlUyl1LKpVScnIyG9ag8PDw4L4Pv4NaE/zt1s6fP8+6BRQWFnLdWyYmJvTs2TM2pEr0+Wjm6+D3339n3ZVS1aNZoxCLiopo5MiR3Buzh62tLc2ePZsuXryo1cbbaWlpgs0kXVxcuJ3kGyopKSnc93FycmLdKuTl5ZG5uTkBFSmV2T46lj179nDX9/f3F/jevn1Lbdu2pTt37gjsLPoSYkZGBvdZdK0fElUtRI2tZplMhuPHj7Nmjvz8fKxbtw7r1q2Dvb09goKC0LVrV7Rv3x6tW7dG06ZNUVpayvVH7dy5E9nZ2QAq6kYHDx6ssn5U3+HnkPTz8+N51HP16lVuSUTPnj1V+uhYDh48yL1m93fZtWsXXrx4UWt/Q3790NfXV6/1Q0BD941CocCjR49Ys0bevn2Lw4cP4/Dhw6xLgImJCSIjI7Fq1Sq1A/4NDX6dSRsh6hKvUChw+fJlABV7z4wePZrzlZSUYMOGDZg6dSokEglnNyT8z67Xbpv/R20LwczMDHFxcViwYEGVE2O1xc/PD1euXME333xjFCIEhD9OZRsKKeE3bKqKl8vlKCoqAlDRd9ikSRPOFxUVhczMTCxatIizGRqDNlQAaKwjKsnOzqbVq1dz2z7ocpibm9PgwYPp9OnT7GUbPC9fvuS+p0QiIYVCwYYIKCkpIUtLSwIqts7QZk3w8OHDCaiYeVNQUEBZWVk0Y8YMsrGxoStXrrDhatFHHTEzM5Pbq9DKyoqKi4vZkCqpdh1RiUQiwbx58zBv3jw8ffoUFy5cQEJCAl6+fIm0tDS8fPkSr1+/hkKhgK2tLdzd3dGzZ0/07dsXISEhddrvZUgaNWoES0tLlJSUYMqUKVp1P9na2qKkpARhYWFa5Z1Rzo4/e/YsnJycUFxcDKlUitOnT6Nfv35suMG4dOkSN3HZ19fXIPMiqxQinzZt2qBNmzb47LPPBHaFQgEigrm5Tpdr0DRr1gy3b99GVlZWlfU9oCLJ6c2bN/H06VOt61jNmjXDb7/9hj///BNJSUlo0aIFfHx89N5QqApD1w8BHYWoifo+Pmwo1O1iWhnKf2Rd6dy5s14nGOgKfycHQwmx6ueJyHtNQkICHj58CABwcXExWJVAFOJ7Tnp6OoKCguDm5oadO3eybnz77bfc64iICK3qwtXBMFetx5SVlSE5ORkPHjxQ2bXgfWThwoU4e/YsUlNTsWPHDoFv//792LNnDwCgd+/emDt3rsCvT94LIRYVFWHPnj0ICAiAlZUVPDw80LlzZ9jY2GDUqFFITk7mYl+9eoU7d+6oLG81VvirMpWzzsvLy7F+/XpuNCc4OBjnz583bCOJ6c4xOn755Rf64IMPCKgY3501axadOnWK4uLiaOPGjeTq6kp2dnZ08+ZNOnfuHNfXN378ePZSDZKq+hFjY2PJwsKCzMzMKCIigiZPnkxt27YlAOTq6kpff/11lX2k2lDjfsSGSnl5OebMmYP169cDALp06YLjx48LWq29evXCkCFD4O/vj9DQUNjb23OJ7G/cuMHFGQNLly4V1O9mzJgBR0dHDB8+HAkJCThw4ACSkpJgZmaGMWPGwMfHB8OGDat2j8hvv/2Ga9eucee3b9/medXAKtMYkMvlFBYWxo18eHt7U3Z2NhvGceHCBS5WeYwaNYoNa5A06BzaDZ2IiAhuQqmtrS2OHDlS6eSAAQMGoHv37oK1JAYZT60Dli1bpna7EkOPeA0bNkztlnka08iwymzo7Ny5U/AfuG3bNjZELRMmTBCUu3fvHhsiYkA07mDfEHn16hU8PDy4NR4tWrTAixcvtJrt4+Xlxe3KKpFIkJWVVWmiUhH9YlTdN8uXL+dECADh4eFaifD169eCrYH9/f1FEdYyRiPEtLQ0fP/99wKbtvvBKCegKjHUeKqIZoxGiMeOHROkwHB3d9d6UgK7EY2xNFQaEkYjRDZB6ODBgwXnlcEXor29fZWZGkT0j9EIkd95ClQ9FV9Jdna2YGcDf39/gw3si2jGKP7iWVlZKn1lvXr1Epxr4vLly4JxZfGxXDcYhRDZXbDs7OzQtm1bgU0T+qofKhQKFBYWsmYRLTEKIbJLFNq3b6919wtfiE2bNlWbB7sq4uPj4ebmBicnpyqX1IqoxyiE2KJFi0rPNfHs2TPcu3ePO/fz86vWIH9kZCTS09NRWFiIAwcOsG4RLTAKITo6Ogo2saxs4yE+ixcv5jJzAdV/LCvHVE1NTTF+/HjGK6IVzJBfg4U/28Pd3Z11q3D06FEuT6HyiIuLY8O04s2bNxQdHV3t8iJGNNacnp4ODw8PrsFw48YNjXuBHDlyBDKZTLBUwNbWFjk5OdV6NIvUHKN4NAOAs7MzvvvuO+589uzZePv2LS+iYlr81KlTMWbMGAwbNkzg69evnyjCOsSo5iOOHz8e5eXlmDp1Km7cuIHu3bsjNDQUDg4O+OOPP3Dy5EnY2dnhxIkTUCgUgtGY6tYPRfQE+6w2Bl6+fEnz58+nLl26UJMmTcje3p569epFX3/9NZdgNDIyUlA/vH79OnMVkdrEaOqIutKrVy/Ex8cDAJo0aYKcnBytpowBFdPGoqOj8fDhQzRv3hyjR49G37592TARHTCaOqIu5OfnC5YF+Pr6ai3Cy5cvw8PDA3v27AER4bvvvoOvry+WLl3KhoroAnOHfC84dOiQ4LG8YsUKNkQt165dIxsbG4qKiuKWZ86aNYuAihzXDT0Vc13yXt4Rjx07JjgPDAwUnKtDLpdDJpNh8ODBWLlyJdfCVqZoIyK1m5+LaEeDF2J0dDQCAwMxc+ZMrbbeyM/Px+nTp7nzdu3aoXfv3rwI9WzduhUpKSlYvXq1wM7PAtu8eXOeR0Qn2FtkQ4K/aycAGjduHBuigvJRqjyOHz/OhqjFy8uLhg0bJrA9fPiQu06LFi1ILpcL/CLa06D7Efkd2EBFsvjK2LJlC5f5AQDmzJmDESNG8CI0M2zYMIwbN05g47//5MmTtW7wiKiBVWZDQrkbPABq1KgRnTt3jg0hooo9Y+bMmcPlgQZA8+fPF2zQrStFRUUkkUi46z1+/JgNEdGBBn1HHDNmDNatWwegImNVfn4+rl27BkdHRxQVFSE9PR1xcXGIjo5GSkoKgIq5iuvXr8df//pX/qV05siRI9zexQMGDICnpycTIaITrDIbEuXl5bR3717q2LGj4G7HHlKplMLCwuinn37SS2YrIiI/Pz/u+vv27WPdIjpiNCMrhYWFSEpKQl5eHoqLi2FhYQGJRIKWLVuqzcFSExITE7mlqhKJBGlpaYJd6UV0p0E/mvlYW1vD29ubNRuE3bt3c68nTpwoEGFcXBzCwsLw4MEDUZw60OD7EWubsrIygRDZrT42btwICwsLUYQ6YjR3xNoiPj6eWzXo7e2NLl26cL6nT5/i0KFDKqlPRKpGvCPWAH6uv9LSUnzyySfw8vIS161UA1GIOuLt7Q13d3cAQFJSEsrKyvDkyRN89NFHSE1NxcmTJ8VMEdVA/IvpiIWFBU6cOAEvLy9cvnwZ9vb28PT0RH5+Ps6fPw+pVMoWEdECo+m+qW3KysqQkJCAlJQUtG3bttZa7MaKKESReoH4aBapF4hCFKkXiEIUqRf8Hxk9wch8DZN7AAAAAElFTkSuQmCC;fillColor=#b0e3e6;strokeColor=#0e8088;" parent="1" vertex="1">
          <mxGeometry x="546" y="148.3" width="18.43" height="15.7" as="geometry" />
        </mxCell>
        <mxCell id="Ahbohu0YX-k4-D2E7kMl-2" style="edgeStyle=orthogonalEdgeStyle;rounded=1;orthogonalLoop=1;jettySize=auto;html=1;entryX=0;entryY=0.5;entryDx=0;entryDy=0;fillColor=#b0e3e6;strokeColor=#666666;endArrow=open;endFill=0;strokeWidth=2;curved=0;endSize=10;" parent="1" source="ge7U_ckxbSTvFdSfHZRP-2" target="ge7U_ckxbSTvFdSfHZRP-3" edge="1">
          <mxGeometry relative="1" as="geometry" />
        </mxCell>
        <mxCell id="ge7U_ckxbSTvFdSfHZRP-2" value="计算感知算法，获取局部压缩比" style="rounded=0;whiteSpace=wrap;html=1;fillColor=#b0e3e6;strokeColor=#0e8088;fontFamily=宋体;" parent="1" vertex="1">
          <mxGeometry x="290" y="144" width="90" height="40" as="geometry" />
        </mxCell>
        <mxCell id="ge7U_ckxbSTvFdSfHZRP-3" value="&lt;svg xmlns=&quot;http://www.w3.org/2000/svg&quot; width=&quot;1.179ex&quot; height=&quot;1.595ex&quot; role=&quot;img&quot; viewBox=&quot;0 -694 521 705&quot; xmlns:xlink=&quot;http://www.w3.org/1999/xlink&quot; style=&quot;vertical-align: -0.025ex;&quot;&gt;&lt;defs&gt;&lt;path id=&quot;MJX-15-TEX-I-1D458&quot; d=&quot;M121 647Q121 657 125 670T137 683Q138 683 209 688T282 694Q294 694 294 686Q294 679 244 477Q194 279 194 272Q213 282 223 291Q247 309 292 354T362 415Q402 442 438 442Q468 442 485 423T503 369Q503 344 496 327T477 302T456 291T438 288Q418 288 406 299T394 328Q394 353 410 369T442 390L458 393Q446 405 434 405H430Q398 402 367 380T294 316T228 255Q230 254 243 252T267 246T293 238T320 224T342 206T359 180T365 147Q365 130 360 106T354 66Q354 26 381 26Q429 26 459 145Q461 153 479 153H483Q499 153 499 144Q499 139 496 130Q455 -11 378 -11Q333 -11 305 15T277 90Q277 108 280 121T283 145Q283 167 269 183T234 206T200 217T182 220H180Q168 178 159 139T145 81T136 44T129 20T122 7T111 -2Q98 -11 83 -11Q66 -11 57 -1T48 16Q48 26 85 176T158 471L195 616Q196 629 188 632T149 637H144Q134 637 131 637T124 640T121 647Z&quot;&gt;&lt;/path&gt;&lt;/defs&gt;&lt;g stroke=&quot;currentColor&quot; fill=&quot;currentColor&quot; stroke-width=&quot;0&quot; transform=&quot;scale(1,-1)&quot;&gt;&lt;g data-mml-node=&quot;math&quot;&gt;&lt;g data-mml-node=&quot;mstyle&quot;&gt;&lt;g data-mml-node=&quot;mi&quot;&gt;&lt;use data-c=&quot;1D458&quot; xlink:href=&quot;#MJX-15-TEX-I-1D458&quot;&gt;&lt;/use&gt;&lt;/g&gt;&lt;/g&gt;&lt;/g&gt;&lt;/g&gt;&lt;/svg&gt;-互异近邻梯度选择算法" style="rounded=0;whiteSpace=wrap;html=1;fillColor=#b0e3e6;strokeColor=#0e8088;fontFamily=宋体;" parent="1" vertex="1">
          <mxGeometry x="446" y="144" width="90" height="40" as="geometry" />
        </mxCell>
        <mxCell id="Ahbohu0YX-k4-D2E7kMl-6" value="预热训练" style="rounded=0;whiteSpace=wrap;html=1;fillColor=#b0e3e6;strokeColor=#0e8088;fontFamily=宋体;" parent="1" vertex="1">
          <mxGeometry x="40" y="142" width="90" height="40" as="geometry" />
        </mxCell>
        <mxCell id="Ahbohu0YX-k4-D2E7kMl-7" style="edgeStyle=orthogonalEdgeStyle;rounded=1;orthogonalLoop=1;jettySize=auto;html=1;entryX=0;entryY=0.5;entryDx=0;entryDy=0;fillColor=#b0e3e6;strokeColor=#666666;endArrow=open;endFill=0;strokeWidth=2;curved=0;endSize=10;" parent="1" source="Ahbohu0YX-k4-D2E7kMl-6" target="VMAdAS11OgDW_Fi8vncO-13" edge="1">
          <mxGeometry relative="1" as="geometry" />
        </mxCell>
        <mxCell id="VMAdAS11OgDW_Fi8vncO-5" style="edgeStyle=orthogonalEdgeStyle;rounded=1;orthogonalLoop=1;jettySize=auto;html=1;exitX=1;exitY=0.5;exitDx=0;exitDy=0;entryX=0;entryY=0.5;entryDx=0;entryDy=0;fillColor=#b0e3e6;strokeColor=#666666;endArrow=open;endFill=0;strokeWidth=2;curved=0;endSize=10;" parent="1" source="ge7U_ckxbSTvFdSfHZRP-3" target="VMAdAS11OgDW_Fi8vncO-6" edge="1">
          <mxGeometry relative="1" as="geometry">
            <mxPoint x="552" y="168" as="sourcePoint" />
            <mxPoint x="612" y="164" as="targetPoint" />
          </mxGeometry>
        </mxCell>
        <mxCell id="VMAdAS11OgDW_Fi8vncO-6" value="编码、传输、同步、更新" style="rounded=0;whiteSpace=wrap;html=1;fillColor=#b0e3e6;strokeColor=#0e8088;fontFamily=宋体;" parent="1" vertex="1">
          <mxGeometry x="586" y="144" width="90" height="40" as="geometry" />
        </mxCell>
        <mxCell id="VMAdAS11OgDW_Fi8vncO-13" value="动量修正" style="rounded=0;whiteSpace=wrap;html=1;fillColor=#b0e3e6;strokeColor=#0e8088;fontFamily=宋体;" parent="1" vertex="1">
          <mxGeometry x="166" y="142" width="90" height="40" as="geometry" />
        </mxCell>
        <mxCell id="VMAdAS11OgDW_Fi8vncO-14" style="edgeStyle=orthogonalEdgeStyle;rounded=1;orthogonalLoop=1;jettySize=auto;html=1;entryX=-0.004;entryY=0.439;entryDx=0;entryDy=0;entryPerimeter=0;fillColor=#b0e3e6;strokeColor=#666666;endArrow=open;endFill=0;strokeWidth=2;curved=0;endSize=10;" parent="1" source="VMAdAS11OgDW_Fi8vncO-13" target="ge7U_ckxbSTvFdSfHZRP-2" edge="1">
          <mxGeometry relative="1" as="geometry" />
        </mxCell>
        <mxCell id="VMAdAS11OgDW_Fi8vncO-15" style="edgeStyle=orthogonalEdgeStyle;rounded=1;orthogonalLoop=1;jettySize=auto;html=1;entryX=1;entryY=0.5;entryDx=0;entryDy=0;exitX=0.5;exitY=0;exitDx=0;exitDy=0;fillColor=#b0e3e6;strokeColor=#666666;endArrow=open;endFill=0;strokeWidth=2;curved=0;endSize=10;" parent="1" source="VMAdAS11OgDW_Fi8vncO-6" target="VMAdAS11OgDW_Fi8vncO-16" edge="1">
          <mxGeometry relative="1" as="geometry">
            <mxPoint x="236" y="218" as="sourcePoint" />
            <mxPoint x="488" y="244" as="targetPoint" />
            <Array as="points">
              <mxPoint x="631" y="108" />
            </Array>
          </mxGeometry>
        </mxCell>
        <mxCell id="VMAdAS11OgDW_Fi8vncO-17" style="edgeStyle=orthogonalEdgeStyle;rounded=1;orthogonalLoop=1;jettySize=auto;html=1;entryX=0.5;entryY=0;entryDx=0;entryDy=0;fillColor=#b0e3e6;strokeColor=#666666;endArrow=open;endFill=0;strokeWidth=2;curved=0;endSize=10;" parent="1" source="VMAdAS11OgDW_Fi8vncO-16" target="VMAdAS11OgDW_Fi8vncO-13" edge="1">
          <mxGeometry relative="1" as="geometry" />
        </mxCell>
        <mxCell id="VMAdAS11OgDW_Fi8vncO-22" style="edgeStyle=orthogonalEdgeStyle;rounded=1;orthogonalLoop=1;jettySize=auto;html=1;entryX=0.5;entryY=1;entryDx=0;entryDy=0;endArrow=open;endFill=0;strokeColor=#666666;strokeWidth=2;curved=0;endSize=10;" parent="1" source="VMAdAS11OgDW_Fi8vncO-16" target="VMAdAS11OgDW_Fi8vncO-20" edge="1">
          <mxGeometry relative="1" as="geometry" />
        </mxCell>
        <mxCell id="VMAdAS11OgDW_Fi8vncO-16" value="&lt;font style=&quot;font-size: 10px;&quot;&gt;`Epoch_{max}`?&lt;/font&gt;" style="rhombus;whiteSpace=wrap;html=1;fillColor=#e1d5e7;strokeColor=#9673a6;" parent="1" vertex="1">
          <mxGeometry x="366" y="86" width="80" height="44" as="geometry" />
        </mxCell>
        <mxCell id="VMAdAS11OgDW_Fi8vncO-21" style="edgeStyle=orthogonalEdgeStyle;rounded=1;orthogonalLoop=1;jettySize=auto;html=1;entryX=0.5;entryY=0;entryDx=0;entryDy=0;endArrow=open;endFill=0;strokeColor=#666666;strokeWidth=2;curved=0;endSize=10;" parent="1" source="VMAdAS11OgDW_Fi8vncO-18" target="Ahbohu0YX-k4-D2E7kMl-6" edge="1">
          <mxGeometry relative="1" as="geometry" />
        </mxCell>
        <mxCell id="VMAdAS11OgDW_Fi8vncO-18" value="&lt;font face=&quot;宋体&quot; style=&quot;font-size: 10px;&quot;&gt;数据准备&lt;/font&gt;" style="rounded=1;whiteSpace=wrap;html=1;fillColor=#dae8fc;strokeColor=#6c8ebf;" parent="1" vertex="1">
          <mxGeometry x="40" y="62" width="90" height="42" as="geometry" />
        </mxCell>
        <mxCell id="VMAdAS11OgDW_Fi8vncO-20" value="&lt;font face=&quot;宋体&quot;&gt;&lt;span style=&quot;font-size: 10px;&quot;&gt;最优模型&lt;/span&gt;&lt;/font&gt;" style="rounded=1;whiteSpace=wrap;html=1;fillColor=#dae8fc;strokeColor=#6c8ebf;" parent="1" vertex="1">
          <mxGeometry x="361" y="22" width="90" height="42" as="geometry" />
        </mxCell>
        <mxCell id="VMAdAS11OgDW_Fi8vncO-33" value="&lt;font style=&quot;font-size: 14px;&quot; color=&quot;#cc99ff&quot;&gt;`k`-RNGC&lt;/font&gt;" style="text;html=1;align=center;verticalAlign=middle;whiteSpace=wrap;rounded=0;fontSize=14;" parent="1" vertex="1">
          <mxGeometry x="514" y="198" width="58" height="14" as="geometry" />
        </mxCell>
        <mxCell id="W4gku7kEh_xzMsPoFV-s-1" value="" style="rounded=0;whiteSpace=wrap;html=1;fillColor=none;dashed=1;strokeColor=#CC99FF;" parent="1" vertex="1">
          <mxGeometry x="22" y="344" width="506" height="78" as="geometry" />
        </mxCell>
        <mxCell id="W4gku7kEh_xzMsPoFV-s-2" value="" style="shape=image;verticalLabelPosition=bottom;labelBackgroundColor=default;verticalAlign=top;aspect=fixed;imageAspect=0;image=data:image/png,iVBORw0KGgoAAAANSUhEUgAAAWUAAABxCAYAAAANtbKCAAAACXBIWXMAAA7EAAAOxAGVKw4bAAAgAElEQVR4Xu2deVhTR/fHT8K+iKgILtCK4kIV97e2iAuKuC9t3UXrvlu1tvWnVV+s1Yp1qVrX1uqLr9b1dbdYtW5YtYpSVxQF9w0REAhrcn5/8CZvcuYmuUluIMJ8nuc8rd975szl5uZk7szcGRkiInA4HA7HJpBTgcPhcDglB0/KHA6HY0PwpMzhcDg2BE/KHA6HY0PwpMzhcDg2BE/KHA6HY0PwpMzhcDg2BE/KHA6HY0PwpMzhcDg2BE/KHA6HY0PwpMzhcDg2BE/KHA6HY0PwpMzhcDg2BE/KHA6HY0PwpMzhcDg2BE/KHA6HY0PwpMzhcDg2BE/KHA6HY0PwpMzhcCwiKysLsrOzge8sJw32VCgpsrOz4e+//4b79+/D69evIS0tDV6/fq35/9zcXCgsLITCwkJQKpWaGwARwd7eHhwcHET9183NDXx8fMDHxwe8vb3Bx8cHqlSpAlWqVCFnxOGULKmpqXD27Fk4c+YMxMfHQ0pKCqSkpEB6ejpUrVoVatSoAU2aNIHBgwdDw4YNaXGr8PTpU9i9ezecPXsWLl68CI8fP4b8/HwAAJDL5VChQgWoX78+NGvWDPr16wctWrQgEUoehUIBKpUK3N3d6SGTycrKkiSODlgCFBQU4OnTp3Hp0qUYERGB7733HsrlcgSAEjMvLy8MCwvDadOm4ebNmzEhIYGeNodjdXJycnDLli0YGhqKMpmMuU/1WdOmTfHYsWM0nGTExMRg+/btTf6etmzZEm/evEnDSUJubi6OGjUKR48ejUqlkh4WJD4+HuvVq4eVKlXChQsXYlZWFnURxYsXL7Bnz57o7u6O06dPx5cvX1IXsym2pFxQUID79u3DIUOGYIUKFZgPzxatSZMmuGTJEnz69Cn9czgcScnOzsbvvvsOK1asyNyHptiQIUMwNTWVhjebmzdv4vvvv8/UY4pVrlwZHz58SENbxP3797FZs2aaOvr374/5+fnUTYcVK1agk5MTc26LFi0yKTnv2rULvby8dOK4urri1KlTJckVVk/KSUlJOHPmTKxatSrzYb0tZmdnh507d8YrV67QP88q7N+/H3v37o116tTB+vXrY8+ePXH16tWYk5NDXQVRKpV44MABnDx5MrZs2RJr166N1apVwyZNmmDnzp3xn//8J967d48WM8jjx4/xxx9/xN69e2OzZs3Qz88Pa9Sogc2aNcMBAwbgunXr8PXr17QYRwSbNm2S9PtRt25dvH//Pq3GZNasWYMuLi5MfHPsH//4B+bm5tIqzCImJgYrVarE1NGtWzfBOlJSUrBbt26Mv7Z5eHjg6NGj8dy5c7S4hrS0NIyIiGDKapuTkxMOGTIEL1y4QIuLxmpJ+fr16zho0CC0s7NjTvxtNblcjlOmTMGCggL650pCYWEhDhgwgKlXbZUrV8atW7fSYhry8vJww4YNWKdOHaaskLVu3Rpv3LhBw+jw9OlTnDRpEtPCEDJXV1ecNWsW5uXl0TAcAR49eoSdOnVirqMUVrVqVbx69SqtUhQpKSnYo0cPJqalFhkZSasyCZVKhd98843BLpThw4frlDl+/DhWq1aN8TNkgYGBuGHDBp04R44cwerVqzO+hqxOnTr49ddf68QRg+RJ+dGjRzh48GCT+sM8PDzQ19eX0anVrVsXGzRooLH69etjYGAgBgQEYI0aNbBq1aro7u5uUt3mWNu2bTEzM5P+6RYzevRoBAD09fXFI0eOoEKhwHPnzuncDHZ2drhz505aFOPi4tDf3x8BAGUyGX788ce4ZcsWvHfvHioUClQoFHjhwgXs0KGDzt/i6uoq2DpQqVQYGRmpaSl5e3vjzJkz8dSpU/j8+XMsLCzElJQUjI6OxvLly+vE/OSTT0T38ZVVYmJiLO6qMGbVq1c3+XH65cuXGBgYyMTSNm9vb/Tx8WF0Y+bn52f2ffH69Wvs2rUrE5NaWFgYIhZ1l86cOdNgAjdkISEhiIiYlZWF48aNY46LNWdnZ+0/QxSSJWWlUomLFi3S+7hTrlw5DAsLw6lTp+Ivv/yCFy5cwIcPH2oeNy5cuMCUoZadnU1qFUalUmF6ejrevn0bT506hVu3bsW5c+diREQEBgUFSdJ679Gjh9k3mBBHjhxBAEA3Nzemm2Tt2rU6dTs6OuL169c1x6Ojo9HZ2RkBANu1a4cXL17UKq2LQqHADz/8UCdelSpV8M2bNxqfnJwc7NOnj6auadOmYXp6ulYUXWJjY9HBwUEn5owZM6gb579ERUUxycLPzw/Dw8Nx0KBBOGXKFPz2229x5syZOGTIEKxZs6aOryn2/vvvi+72ysrKwkaNGjExfHx88IsvvsC4uDid7+CDBw9w7ty5aG9vz5TRZ7///rtWjeK4cuWK5hp07dpV0/gQsrCwMExKSsIPPvgAAQADAgJwwoQJWLt2bcbXkIWEhGBsbCzWqlULAYoajp999hl27dqVaYQYsgoVKtA/xyiSJOXk5GRs1aoVc0LlypXD8ePH45EjR4w+0h44cIApr21Vq1alRcwmOzsbjx07hl9++aXBD9iYrV27loY2m6ZNmyIA4Pfff08P4eXLl5m6R4wYgYiIS5cuRYCi1vGKFStISWGErrW63vT0dAwODkYAwNq1a+Pt27dJaWHCw8N14rm5ufE+ZoJKpcKJEydqrlG5cuXwiy++EHWNL1++jL169TLrKXDChAk0nCDDhg3TKefm5oZLly412l137tw5dHNzY+oVskGDBtHiRgkLC8N27dppnuieP3+OTZo0YWIDAFarVg09PDzQ3t4ep0+fjgqFQhPn7t27uHLlSgwNDWXKUXN3d0e5XI6Ojo44efJkTElJ0cQpLCzEM2fO4P/93/8Z7RqpVq2appxYLE7K0dHR6OHhoXMiLi4uGBkZadKX8ueff2b+IG1r2bIlLSIJSqUS9+/fj+Hh4Sbf8FWrVhXdCjHEoUOHEKDoRhBqkSYkJDB116hRA3ft2oVyuRwdHBxwy5YttJheMjMzmXgffvghFhQUaLo36tati0+ePKFF9TJ//nwm5saNG6lbmUWpVOLQoUM116ZJkyaYlJRE3Yxy5coV7NixI3OtDZlMJsPY2FgaSofdu3frlGnVqpVJg4WbN29m6hUyT09Po0meUlhYSCV88uQJE1ttTZs2xcuXL9MiOiQkJOCwYcP0fudlMhkOGDDA6GeUl5eH69evZ3Kg2mrVqkWLGMWipPzNN98wJ1GvXj28du0adTXKvHnzmFjaFhERQYtIzrlz50xuOR86dIiGMZmePXsiAOCYMWPoIUREPHnyJFMvQFF/FQDgpk2baBGj0IE7FxcXHDNmDAIUtZCfPXtGixhk9erVzPlNnTqVupVZtFvI1atXt2heq0qlwlmzZjHX25DVq1dP79Pqq1evdPqI+/fvLziLwRhdunRh6hWymJgYWtRkMjIymLgAgM2bNzcp6R8+fJiJAWB6I3DXrl1MDADAoKAg6moUs5KyUqnECRMmMCdQs2ZNfPHiBXUXxfjx45l42jZnzhxaxCpkZGRo+lPF2KRJk2gIk0hNTUVHR0cEADx8+DA9jIiIP/74I1Ov2saNG0fdjZKbm8vEUZuTkxPGx8fTIkZZvHgxE+vTTz+lbmWSb7/9Vue6REdHUxez2LZtm94xHCFbt24dDYGIiB9//LHGZ8SIEahSqaiLKP766y+mTiHr06cPLWoyCoWCiQvwv4E+sbx69YqJAfC/gT6xJCcnMzEAin4kTMWspKxuUWmbvb292VNwEBF79erFxNQ2c1qD5lJQUICtW7dmzkHIOnfuTIubhPqxz8XFRaf/S5shQ4Yw9QIANmzYUG/rxxAPHjxgYqlt5cqV1F0U06ZNY2KNHz+eupU5aEvMzc1N9IC1GGJiYkQPXL/zzjvM/bJx40bN8ZCQEKMvYBijZcuWTL3U5HK5zkC1ORQUFDBxAUxPynl5eUwMANOTcnp6OhMDoGh+tqmYvCDR8uXLYd26dVSGMWPGQFBQEJVF8+jRIyrp4O/vTyWrYW9vD9u3bwdvb296iOHFixdUMokjR44AAEDbtm3BxcWFHC0iNjaWSmBvbw8bN24ER0dHesgoiYmJVAIAgLCwMJg4cSKVRXHjxg0qlfn1RFJTU2H48OE6WkBAALi6uupoltCxY0dYvnw5lQV5+PAhREdHa/59584dmDRpEgAAvPPOO7B7925wcHDQHDeHgQMHUolBpVJBnz59ICEhgR6CxMREmD17NuTm5tJDOtjb24NMJqOyyTg6Olr8NwOApJ+pSS3lP/74Q/BXWSaTYWJiInU3icqVKzNxte3Ro0e0iNWZMWMGcx7UWrRoQYuZhPoV1jVr1tBDiFj08gatE0D8iLoQQoNy9vb2eOfOHeoqCpVKhd7e3kzMPXv2UNcyBZ3NAADYsWNH6iYJQt2JQqZuueXl5WlmMLi6ujLTMM3l5cuXoqfIubi4YGhoKEZERGCHDh0wICAAAYqeJsQMoNNpmACmt5QRUXC+uKktZURkYgCY11IWnZRzcnI0c/aotW7dmrqbhL7+IbU5OjpKOidYLLdv32bOhVrv3r1pMZNISkrC/fv36x2c+PXXX5k67ezs8PHjx9RVNEIDMv3796duoomPj2fiAYBF5/i28/z5c81YgbY1bNiQukqCQqHAd955h6lPyK5evap5UQkATJq5I4bOnTszdYq1hg0bil4MzNXVlSlvTlIWum7mJGWhBqs5SVl098V3330H9+7dozIAAIwYMYJKJpGcnEwlHfz9/UEuF32qklGnTh3w8vKisg5+fn5UMgl/f3/o3r072NsLr6J68uRJKkFoaChUr16dyqJQqVRw9uxZKkPv3r2pJJqjR49SCd577z2zz7E0sG7dOs2SltokJCRAYWEhlS3GxcUFFi1aRGVBBg4cCOvXrwcAgM6dO4vqcjAFc+ONHTsWLly4AHXr1qWHBJGi2wEAoFy5clQyC/zvcsKWIirTvXnzBn744QcqAwBAeHg4REREUNkkkpKSqKRDcfYnU4wlFkuTsjGEknKXLl2oJJr4+HjIyMjQ0WQyGYSGhupopiCUlDt06EClMsXx48epBAAA+fn5cOjQISpLQp8+fUR9V65fvw4AAM7OzvDjjz+So5bTq1cvk/pYPTw8YPv27bBmzRpwdnamh/UiVVJ2cnKiklkIJWUhzRiiknJ0dDS8efOGyjBs2DDYu3evxa1YW07KFStWpJIOrVq1opJkvHjxAm7fvk1lixLeqVOnqAQNGzY0+nfqQ6FQwJkzZ6hs0TmWBu7evUslDfPnz6eSJMjlchg7diyV9fL1119DzZo1qWwx7u7uMGrUKCoLUr9+fYiLi4O+ffvSQ0aRKimbkziFEIpjZ2dHJaOIyqb79u3T+be/vz/s2bMHfvnlF70zBkxB32wANZbM6rCUV69eUUmDv78/NG/enMqSITTrwsvLC+rXr09l0QglZUtayQcPHoScnBwdzc3NzaKYbzu5ubnw7NkzKmu4ePEibN++ncqSMHz4cL1dYdrUrFkTvvzySypLxpw5cyAgIIDKOvTu3RvOnz9v1E8fUiVllUpFJZNRKpVUAgArJmV7e3twdnaG4OBg2LBhAyQkJECvXr2om9kITY3RpmnTplQqNp4/f04lDeb8upuCUFJu27at2VOBEFGwVdu2bVsqiUYouXTv3t2kx9fShpgv4vjx4+Hp06dUthgvLy9o3bo1lRm8vLwke2wXomLFinD48GHBhCuXy2HBggWwc+dOi7ZSkiop60uopqBvnMCsXgTtUT9DWHP2g5+fHzNqqTY7Ozu9L1VYm8ePHzPno21xcXG0iKSoFynStlWrVlE30fz9999MPLlcbtIaJdpkZmZqXvXWtrI+FQ7R+BRPAMDQ0FC9s24sYeXKlUxd1Dw9PWkxq6BQKHDJkiWaeh0dHfW+uWoqQkuMmjP7om7dukwcU2dfvHnzhokBANimTRvqahTRadysjC+C7OxsePz4MZU1vPfee5J0kZiDvsEagKI+U2u24DMyMuDvv/+mskWtWqGui0aNGkGFChWoLIq9e/cyk/w9PDygU6dOOlpZJDg4mEoMJ06cgClTplDZYnr27EklhvT0dINdc1KRl5cH//73vzX/XrlyJXTu3FnLw3yk6HYAACgoKKCSydDvgRpz8qbpJSTm5s2bgh3kaqyZ+IyhLynL5XJYvHgxlSUlNjaWeazy8vKCwMBAHc0UhJKymEddfWzevJlK0LdvX70j6ElJSTBt2jQ4f/48PVTq6N69O5UEWbVqleAbspbg5+cHtWvXpjLDnTt3qCQp2dnZ0KVLF7hy5QoAFA2Kjx49mniZT15eHpXMQqFQUMlk9MUQ05VFKfGkfO3aNSrpUFJJOSMjA/bs2UNlACiadWLtLd2FEmhISIhF/cmnT5+mMoSEhFBJFE+fPoVjx45RGYYOHUolDbNnz4alS5fCzz//TA+VOgYPHgzvvvsulQWZNGmS4OdtCWJ+bB88eEAlycjLy4OePXvCuXPnNNpnn32m5WE5Qq1TQw08fWRlZVHJ5DiZmZlUAoC3tKVsq0l5/fr1ghfaw8MD5s2bR2XJEfqSWjL97ubNm5CSkkJls5NydHQ08/hYt25daNmypY6mRqFQwN69ewHA/DrfJhwdHSEyMpLKghQUFMAnn3wCDx8+pIfMpk2bNlRisFZSLiwshD59+ug8aXp6eko6OQBAOCmnpaVRySBKpVIwKRuaPSOEvnqfPn2qdxBQL7pdzMVP+/btmc5xtclkMp1tioqLgoICwT0DZTJZsQxiZWZmCq4f8Ndff1FX0axatYqJFxAQQN1EIzQ4smjRIuqmQf26uIuLi9kDi28bhYWFWK9ePeY66bPWrVtLNqB+9+5dJj61sWPH0mKSMGLECKauHj16UDeLKCwsFHyt2c7OzqS1qp89e8bEUNuZM2eou1527tzJlFeb0DrphgZ4SzwpGxqlrlu3LnUvFhYsWMCcCwCYtTOtOcTExDB1lytXTnAHBrH07duXiUl3/hVLYmIiE0smkxlc60K9Z9rIkSPpoVJNbGys4A+sPjP0w2YKKpUKy5Urx8TXti5dutBiFrNp0yamHgDApUuXUleL0LdQFwDgwIEDqbtezp8/z5RXW8OGDUUv9r9ixQqmvLYtX75c43v+/HkMDAzE3bt3a0X4HyWalB89esScvLYNGDCAFrE68fHxggvJdOzYUbJWjDGEVqezdN3mKlWqMDH/9a9/UTdRHDx4kInVqFEj6qbht99+QwBABwcHs1eie5sRWpVPn1WoUAEzMjJoCLMwtraxOQuwG+LGjRuCiwQBAJ48eZK6W8SlS5eYOrRN7P6Z27dvZ8pq25QpU2gRQSZPnsyU1TY7Ozv8+uuvMSQkBAGKNqM9deoUDYOIJZyU9+7dy5y8tgltImpNcnNzMSgoiDmPxo0bF+sjt3rjUm2LioqibqK5efMmEw8A8OHDh9RVFOqdt7WtX79+1A0RizaprVOnDgIATp48mR4uEyiVSoPddNQWLlxIQ5iFsd18/Pz8aBGLMLRRxdOnT6m7Rezfv5+pQ9vs7e3x6NGjtBjDzJkzmbLUtm7dSosxmLIy3gcffGDwqbJEk/Ls2bOZE9Y2qX9dDZGfn6+zLY72BUxLS6PuViMzM1NwndgLFy5QV9EI9Sebs6GjmmfPnqFcLteJN3HiROqGKpUKBwwYgABFe8RlZWVRlzLDs2fPdPbBM2SdOnWixc1izZo1TGxtc3JyokXM5tatW3o3IXVzc6PuFpOcnIzu7u5MXdrm6elpdHs6ugu7kLm6uhp9wtu3bx/znRCycePGMbu/UEo0KXft2pU5abU5OjoW25t8OTk5gucSGhqKmZmZ1N2qqHe21rby5csbHBgwRr9+/ZiYo0ePpm4mMXDgQJ149E2q7OxsjIiIQICi/nBLtgorLRw/flzUF9ecbemFEHqioSbVQPqUKVOY2GqzZEDZEEKb9arNxcUFN2/eTIswHD16VLC7Um0ymQznzJkjat9CQ/3Kzs7Oond3L9GkbKjlEBwcTN2twps3bzAsLIypv0ePHqJ2P5AaoQ1ILVmAHhGxUaNGTMyDBw9SN5PIyMjQ7BQBUHTTrVmzBo8fP46LFi3CGjVqIABg5cqV8dKlS7R4mSUyMpL5LKhJ1a0gNCBLzdRdy/Wh7isVMnMWeheDSqXC0NBQpj5/f3+TdlLZsWOH4I+lh4cH7tu3j7obROjHqUaNGiYtyVBiSVnf7q9qmz59Oi0iOf/5z3+YqW8ODg4YFRUl6pfRGpw/f17nBvH29sZbt25RN5OYNGmSzt/YrVs3i1reah4+fCg4q0Ntffr0waSkJFqsTKNUKrFt27bMtdK2Vq1a0WJmkZ+fL5hstO3evXu0mFkI7d6htvDwcOouGUlJSTrdGJ06dcLU1FTqZhQ64yowMFD0DijaFBYW6owfhIeH46tXr6ibQUosKQttc6RtlrbkDJGcnCzYXeHv74/nz5+n7sXO4cOHcfDgwTht2jRMTk6mh00mJycHv/vuOxw4cCCuXLnSaJ+WqVy6dAl/+OEHHDVqFI4aNQqXL1+O8fHx1I3zX5KTk9HFxYW5/9QmdsRfDIaSJQDgtWvXaBGzMDT9rm/fvtRdUlatWoUymQxnzZpl9gwppVKJbdq0QQDAjz76yKJunZcvX2LlypVxxowZZp1PiSVlQ1NI5HK55INr+fn5eODAARw4cKDgF6Jfv36Ynp5Oi3E4VqF79+7MPag2KX/QGjduzMTXNlMe8/WhVCr1DvIBCL88ISUqlcqkFz308fDhQ1y0aJEkT8mmvMBCMb4atpUwtChN06ZNwdPTk8omk5qaCpcuXYLdu3fD7t274fXr19QFgoKCYNmyZdC+fXt6iMOxGnXq1KESABStAtioUSMqm42HhweVdJBiTeWsrCyDa0WYuwqhWGQymSSv7vv5+Um28H/lypWpJJoSScq5ubmalaOEMCVB3r17Fy5evAjJycnw/PlzSElJgZcvX8KdO3cMLglauXJlmDdvHowcOdKslZw4HEu4desWlcDZ2VmzoalUFEdSNrZamyUL2ZdFSiQpx8bGCu70qyYsLIxKOiAibN++HebNmwc3b96khw1SsWJFGDt2LHz11VdQvnx5epjDsTovX74UXGFv5cqVopbcNIXiSMrG1iOWaoeQskKJJOU//viDShqcnJz0rjQGAHDu3DmYMGGCwZa2EA0aNIDPPvsMIiIiSmzRfA4HoGipTtooWbBgAYwcOVJHkwJbSMpi9gzk/I8SuVr6Fo8HKNqxQV/S3L59OwwZMoS5oQ0REhICc+fOhXbt2tFDHE6xs3fvXtixY4fm387OzrBixQrRuz+bSrly5aikgxRJmW7GQDFnTeGyTLEn5YyMDIiLi6OyBn1bCV26dAkiIiJMXps0LS0NPvzwQypzOMXOyZMnYfDgwZp/BwQEwM6dO6Fx48ZaXtJiqKVsZ2cHbm5uVDYZQ4N8AEUDcRzxFPtP2KlTpwz+snbp0oVKAAAQExNjckIGALhx4wZMnTqVyhxOsfLbb79Bly5dNAuq9+7dG+Li4qyakAEMJ+WqVasWSyvWWNLm6GL9T4RgqOvC19cXGjRoQGUAAJg1axbcvXsX1q5da/KUoXXr1hnsx+ZwrEVubi58+eWX0K1bN8jJyQF/f3/YsWMH7Ny502DClApD3RfVq1enklkYS7qGGmEclmJPyoaSo75WsppatWrBmDFj4MqVK7BkyRKTRnWnTJnCbw5OsTNhwgRYvHgxuLu7Q1RUFNy6dQv69OlD3ayGoa4DX19fKpkF3RaMYs4TblmmWJPyixcv4Pr161TWIHbrcZlMBp9//jlER0eLfvy6du2a5HNAORxjrFu3DtavXw93796Fr776SpKBNVMwNCheXC1lY/OYObqIy2gSceTIESppcHZ2hvDwcCobpH///iZtYjp//nyDNymHIzX29vYwatQoi97wsgRD97tUSdlYS/nNmzdU4higWJPy/v37qaShQ4cO4OrqSmWjTJ8+3eC8Zm2ePHkCmzZtojKHU2oxlJT1veptKsaScnp6OpU4Bii2pJyXl2ewpdyzZ08qicLOzg5++ukn0RPUFy5cyPu4OGUGQ10HwcHBVDILY90XQmvOcPRTbEn5xIkTmulAFLlcDt26daOyaAIDA2Hs2LFUFiQ5ORn27NlDZQ6nVJKWlkYlACiaI+3t7U1lszDWUk5OTqYSxwDFlpQPHDhAJQ0tW7YEHx8fKptEZGSk6ClGy5cvpxKHUyp5+vQplQBAulYygPGWcmJiIpU4Bii2pGyoP7l3795UMplKlSrBpEmTqCzI2bNnDb5VyOGUFp48eUIlAJA2KRtrKWdnZ+v9ceCwFEtSvnLlit5lNGUyGXz88cdUNoupU6eKXiaQt5Y5ZQF9SVnKpQeMJWUAgDt37lCJo4diScqGWsktWrSQbBJ7pUqVYNy4cVQWZNu2bfzXm1PqEbrHfX19ISgoiMpmY6z7AoAnZVMolqS8d+9eKmno168flSxiypQpot70KygogFWrVlGZwyk1PH/+HLKzs6kM/fv3N/imn6mIaSnzfmXxWD0p37lzB+Lj46kMAEWzLvr27Utli6hWrRoMHDiQyoKsXbsWFAoFlTmcUsGJEyeoBAAAAwYMoJJFiEnKV69epRJHD1ZPyr/++iuVNLRp0waqVatGZYv5/PPPqSTI69evITo6msocTqlAaPGvFi1aQNOmTalsEWK6L06fPg05OTlU5ghg9aS8bds2Kmno378/lSShYcOG0KFDByoLsmzZMlE3lSU8efIEzpw5wxdE4hQrQkn5iy++oJLFiGkp5+bmGlyMjPM/rJqU4+PjISEhgcoAULTjgdRdF9qIbS3fuXPHKi+TFBQUwMaNG6FZs2bg6+sLrVu3hp07d1I3DscqJCUlwf3793W0gIAA+Oijj3Q0KfzOJ8EAAAhlSURBVBCTlAEAdu/eTSWOAFZNyoa6Lrp37w6enp5UloyOHTtCYGAglQWZO3eupK3lS5cuQfPmzWH48OFw+fJlACha17Zdu3bEk8OxDkINgIULF1pl53ax350tW7bonRrL0QKthEqlwnfffRcBQND27dtHi0jO2rVrmXr12c6dO2lxs9iwYQPa2dkx8X/99VfqypGIuLg4nDFjBoaHh2NISAhOmDABr127Rt3eClQqFR44cADv3btHD4lGoVCgt7e3zv3Xrl076iYZt27dYu53fTZx4kRanEOwWlKOjY1lPhC1eXt7Y0FBAS0iOQqFAr28vJj6hczf3x9zcnJoCJPYunUryuVyJva4ceOoK0ci5s+fj/b29sw1t7Ozw+XLl+Py5ctpEZvmq6++QgDA0NBQekg0s2bN0rkWzZo1w5cvX1I3SenUqRPzGQiZnZ0d7tixgxbXkJeXh2vXrsURI0bQQ2UGqyXlCRMmMB+I2qZNm0bdrca8efOY+vXZ3LlzaXHR/Pnnn4LJoU+fPlhYWEjdORKwY8cO5noLmaEkYEv8/PPPOucdGxtLXYwSExOj0zDo0KEDZmZmUjfJOX36NHPd9ZmDgwNGR0ejSqXSlE9OTsaoqCj08/NDAMCwsDCt6GULqyTlvLw8rFSpEvNhqO369eu0iNVIS0tDDw8P5hyEzMnJCS9fvkxDGCUtLU2wq6Zbt26Yn59P3TkSoFKpsHr16sw1FzIvLy/MysqiIWyK48ePo4ODg855BwQE4Js3b6irXg4ePIhubm6a8p9++mmx3n8hISHMtTdkPj4+2KxZM/Tx8dHRnZ2dcdOmTTR8mcEqSXn79u3MB6C24OBg6m51ZsyYwZyHPgsICMCMjAwaQi+ZmZmCN+OAAQMwNzeXunMk4u7du8w1N2S23I1x69Yt9PT0ZM4ZALBfv36inrTWrVunM5YxZ84c6mJ1Dh06xJy/qVavXj28evUqDV2msEpSDg8PZy622jZu3Ejdrc7r16+xQoUKzLnos+DgYExLS6NhGFJTUwUT8uzZs6krR2J+++035robslatWtEQNkFKSgrWqlWLOV9tCw0NxefPn9OiiFg0bqLuhwYAdHV1xW3btlG3YqNx48bM+Yu1oUOH2vwTTXEgeVJ+8OCB4GAXAGCFChVQoVDQIsXCkiVLmPMxZEFBQXj+/HkaBhER8/Pz8YcffmASvYuLC0ZHR1N3jhW4efMm85kZMjs7u2LpWzWF3NxcbNmyJXOuQlalShVcsGABXrp0CR89eoQnT57EqKgorFatmsbH398f4+PjaTXFiqGnZH3m7u6OmzdvpqHKLJIn5cjISOaiq23q1KnUvdjIy8vDunXrMudkzDp37oyRkZG4YcMG/P7773Ho0KE6XwS1vf/++5iQkECr5ViJwsJC5kfRmF28eJGGKVFMbe0bsrCwMHz16hWtothRKpVYu3Zt5vz0WZMmTfDOnTs0TJlG0qRsaG6yXC7HxMREWqRYuXDhguAcYkvM3t4e586dWyxT/Di6rF69mvk8DNmWLVtoiBJn5MiRzHmaap9//rmofufigs4i0WeTJk3i4y4CSJqUf//9d+bCq23evHnUvUQwZYqcMevevXuZH5QoSZRKJQ4bNoz5XNTWpUsX7NKli2aa1erVq2mIEicnJ0dwXEKMValSBQ8dOkRDljh5eXno6+vLnK/aKlasiHv37qXFOP9F0qTcr18/5gNwcHDAxYsXU9cSZcyYMcx5mmLt27fX29/MKX527NiBPXr0wGrVqmHlypUxNDRU543R0NBQBACMiorSKmU7KBQK7NatG3OfGbJ+/fphSkoKDWUzLFu2jDlnAMCWLVviw4cPqTtHC8mS8suXL9HJyUnnA2jQoAHGxcVR1xJHqVTi7NmzTerK8Pb2xnHjxpk1oZ9TsgQHByOAbU+LKygowBkzZjDfIWpBQUF44sQJWtzmyM7O1nmbVi6X48yZM3k3nwgkS8qHDx9GAECZTIbNmzfHHTt2oFKppG42xcWLF3HQoEHo6urK3PwODg7YoEEDHDt2LB4/ftym+uw4plG/fn0EANy6dSs9ZHPcu3cP+/fvjy4uLpp70c7ODsPCwnD//v02/53SRt1VWKVKFTx69Cg9zNGDDFHkEk9GQESIi4uD2rVrQ/ny5elhmyY/Px+ePHkCz58/BycnJ/D09ARfX19wdHSkrpy3EF9fX3jy5AkcPXoUwsLC6GGbJCcnBxITE0GlUkFgYCA4OTlRF5snPT0dRowYAatXrwYfHx96mKMHyZIyh2NrqPenK1euHCAixMfHQ6NGjYgXh2Nb2FOBwykt3Lx5EwCKnuLkcjnUqFFD14HDsUF4UuaUWv766y/N/zds2PCt61bjlE14UuaUWnbt2qX5/9atW2sd4XBsF56UOaWSFy9ewOnTpzX/btWqldZRDsd24UmZUyrZvXu3ZkNPV1dX0bubczgljVU3TuVwSoodO3Zo/r9v3768P5nz1sCTMqfUcenSJZ2ui1GjRmkd5XBsG959wSl1TJs2DRARGjduDAAAwcHBxIPDsV14UuaUKvbs2aNpJUdFRZGjHI7tw9/o45QaCgoKoH79+pCYmAjt27eHY8eOURcOx+bhfcqcUsPUqVMhMTERHB0dYdmyZfQwh/NWwJMyp1Tw008/wapVqwAAYP78+RAUFEQ8OJy3A959wXnriY2Nhfbt20N+fj60b98efv/9d5DLeXuD83bCkzLnrSYhIQFCQkIgNTUVAgMD4c8//wRPT0/qxuG8NfDmBOetJioqClJTU6FOnToQExPDEzLnrYdPieO81YwYMQLc3d0hMjISKlWqRA9zOG8dvPuCw+FwbAjefcHhcDg2BE/KHA6HY0P8P9vDZPLDIDMyAAAAAElFTkSuQmCC;fillColor=#b0e3e6;strokeColor=#0e8088;" parent="1" vertex="1">
          <mxGeometry x="384" y="364" width="31.59" height="10" as="geometry" />
        </mxCell>
        <mxCell id="W4gku7kEh_xzMsPoFV-s-3" value="" style="shape=image;verticalLabelPosition=bottom;labelBackgroundColor=default;verticalAlign=top;aspect=fixed;imageAspect=0;image=data:image/png,iVBORw0KGgoAAAANSUhEUgAAAKIAAACKCAYAAAApDZFAAAAACXBIWXMAAA7EAAAOxAGVKw4bAAAckklEQVR4Xu2deVRTZ/rHvywCIggEUYEgVUHFrYoLigLqwEzdUNCqxG3aYq2ijlKt4jjH497Reo51t624110UtXZxryuCWq2CjjiKIMoiArIFwvP7g1/u3PsmgQQSlng/59xzcp/neW8S8uXed31eEyIiiIjUMaasQUSkLhCFKFIvEIUoUi8QhShSLxCFKFIvEIUoUi8QhShSL6gXQiwoKMCmTZtYs8h7hDlrqG2Ki4sRHByM8+fPIyMjA0uWLGFDRN4DTOpyZKW0tBShoaE4deoUZ1uzZg3mzp3LixJ5H6gzISoUCshkMhw6dAgAYGJiAuVH2bZtGz7//HN+uIiRUyd1RCLClClTOBGOHTsWN2/ehLOzMwBg2rRp2L9/P7+IiLFDdcDMmTMJAAGg6dOnk0KhICKip0+fkqenJwEgc3Nzio2NZUqKGCu1LsSoqChOhIsXL2bdlJGRQT169CAAZGlpSefOnWNDdKaoqIi2bdtGs2fPpokTJ9KQIUOoV69e5ObmRhYWFjRr1iy2iEgtU6tCXLFiBQEgU1NT2rRpE+vmyM/Pp8DAQAJANjY2dP36dTZEJ65du8aJX93x1VdfsUVEaplaE+K3335LAMjCwoIOHjzIulUoKSmhcePGEQBycHCgu3fvsiE68eDBA7p8+TIdO3aMvLy8BEI8c+YMGy5Sy9SKELdv304mJiZkY2NDv/76K+vWSHl5OVefbN68OT169IgNqRbKuy0AMjMzo9zcXDZEpJYxuBDj4+PJ1NSUmjVrRnFxcaxbK1auXEkAqF27dlRWVsa6dUIul5O1tTUnxB49erAhInWAwUdWevTogRUrVmDkyJHo0KED69aKqKgotGzZEq1bt4aZmRnr1olbt26hsLCQOw8ICOB5ReoKgwsRABYsWMCadOaTTz5hTdXi0qVLgnN/f3/BuUjdUCcd2nUJX4gmJibo378/zytSV9TZEF9dUFZWBgcHB7x79w4A0KVLF9y7d4+JEqkL3qs74u3btzkRAuJjuT7xXgnx4sWLgnOxoVJ/eK+EyDZU/Pz8BOcidUed1xFzc3ORmJiIJ0+eIDc3F3l5eXj37h3MzMxgb28PFxcXtG/fHp07d0ajRo3Y4lqjUCggkUiQl5cHAGjXrh0ePXrERKmiUCjw+PFjNG3aFK6urqxbRF8IuxUNT2pqKu3YsYNkMhlJpVLBUFtlh42NDQ0ZMoT27dtH5eXl7GWrJD4+XnC9KVOmsCECEhISaOjQoWRlZcWV8fT0rPG4t4h6akWIBQUFtHv3bgoICFARWHWOgIAAKioqYt+mUtauXSu4xp49e9gQIqqYqRMeHk4mJibUt29f2rp1K12/fp1++uknkkqlJJFIKCsriy0mUkMMKsScnBxavHgx2dnZqYippkdkZCT7dpUSHBwsKP/8+XM2hJ49e0be3t7k5OREMTExnP3GjRvUtWtXruzWrVt5pUT0gUFGVkpKSrBmzRp88803yM3NFfjMzc3Rvn17ODk5wc7ODjY2NsjNzUV2djaSk5ORkZEhiNfEyZMnsXbtWtaslvLycvz+++/c+QcffIBWrVrxIoDExEQEBgbCxcUFCQkJcHNzAwDI5XKMGDECr1+/5mK1/YwiOsAqs6ZcuHCB2rdvL7j7dOvWjVatWkXx8fFUXFzMFhGQnJxMe/fuJZlMRmZmZip3QuVhampKpaWlbHG13LlzR1B20qRJKn4nJycKCgqigoICgS8hIUHlvU+dOiWIEak5ehOiQqGguXPnCn6woUOHVnvGDRHR1atXydLSUkUIQMVMHG1Zt26doOwPP/zA+a5cuUJ2dnYUHBys9p8kPz+fWrZsyZUNDQ1lQ0T0gF6EmJ+fT8OHD+d+LGdnZ73dNf7xj3+oiBAA/f3vf2dDNRISEiIo+5///IeIiE6fPk3W1tY0cuRIksvlTKn/kZaWRtu2baNffvmFdYnoiRoL8fnz54KKvI+PD71+/ZoNqzZ79+5VESEAunHjBhuqlvLycnJ0dOTKOTs7U1lZGS1fvpxMTU1pxowZWj/iRQxHjYR4/fp1atGiBfcj+/r6qtSxasr69etVRDhw4EA2TCP3798XlO3QoQN1796dmjZtSocPH2bDReqIarear1y5gqCgIBQXFwOomMly6tQpWFtbM5E1IzY2VnBuYmKClStXCmyVwY4vJyUlAQA6d+6MmzdvorS0FEOGDIGdnZ0gTqSWYZWpDc+fP6fmzZtzdxkbGxv673//y4bVmPj4eDIxMRHc0cLDw9mwShk9erSg/NChQ8nT05NMTU05m6WlJYWEhNDt27fZ4iK1hM5CfPfuHX344YeCH3fjxo1smF4YOHCg4H2cnZ0pOzubDasU/j+MVCrl7Onp6bRmzRpydXXl/FZWVrR9+3ZeaZHaQichlpeX06hRowTi8PPzq9bYb1XExMQI3sfc3JwuXLjAhlXKw4cPBdeYOHEiG0Lp6enUu3dvQZw2y11F9ItOQly8eLHgB2vcuDE9fvyYDasxmZmZgkYQgEoX5Gtiy5YtgmtoutulpKQIOs99fX3ZEBEDo7UQL126pFJfW7ZsGRumF0JDQwXvoy41iTYoF+grjydPnrAhHMqcOwBIIpGwbiIiOnLkiNihbSC0EqJcLqdOnToJftTGjRvrXF/Thk2bNnHvYWlpSVu2bGFDtMbZ2Zm7louLC+sW4O7uzsV6enqybiIiGjRoEPXu3Zs1i+gBrYT473//WyBCQPfWq7ZIJBJydHSksWPHVnoHq4pHjx4JPm9YWBgbwpGXlye423/88cdsCGVmZpKZmRktXbqUdYnogSr7EXNzc7Fq1SrWjJkzZ7ImvZCamorGjRuzZp1hlwVUtlAqNzcXxJuo3rFjR563gr1798LU1BSffvop6xLRA1WuWdmwYQPevn0rsAUEBKBr164Cm77QhwgB3YQolUoFHdps57ZcLsfatWshk8nE5QIGolIhFhQUYN26dawZ4eHhrKnewReio6MjvLy8eF5V/vKXv3Cvnz59yvMACxcuRGpqKr788kuBXUSPsM9qPrt27VKpGwKg9PR0NrRekZqaKvi86voPWVJSUsjW1paAiilmWVlZVFxcTMuWLSMA9OWXX7JFRPRIpUJkRzYAkJeXFxtW7ygpKeH6IS0sLCg+Pp4NUUtCQgJ16dKFgIp0debm5mRmZkbz5s0zSKe9yP/QuJz0+fPnaN26taASDwARERHYuHGjwFYfefbsGU6dOoX+/fujW7durFsjpaWliIuLw927d2FhYYEBAwbA09OTDRPRMxqFuHXrVkybNo0148iRIxg1ahRrFhGpERobK2fPnmVNAIC+ffuyJhGRGqNWiESECxcusGaYmZmhZcuWrNmglJeXY/fu3fDx8YG1tTXOnz/PhogYAWo7tJ89e4Y3b96wZjg5OcHUVK12DcLNmzcRHh6OP//8k7M5OTnxIkSMBbVCVM5iZmnRogVrMhinT59GSEgISktLOZujoyM6d+7MixIxFtTe3hITE1kTANTaY7m8vBwRERECEQIVIzomJiYCm4hxoFaIqamprAkAYGFhwZoMwq1bt/D8+XPWjEGDBrEmESNBrRDz8/NZEwCojDkbiqNHj7ImAEBQUBBrEjES1ApRmUOQpTaEWFZWpnZnUjc3N7Rr1441ixgJaoVYUlLCmgAAL168YE1658SJE2qrBuLd0LhR22q2tbVlTQAq7ohPnjyBh4cH69Ibq1evZk0AgMDAQNYkogX79++HXC5nzQgJCUHTpk1Zs96Ij4/HgwcPWDM6deqEnj17smaonfQwffp0lckOymPfvn1suN5gV+4pD1NTU8rMzGTDRbTA3t5e5e8JgJKSkthQvcIm5FIec+fOZUOJSMMMbeVO8uo4deoUZDIZa64xcrkcUVFRrBlAxTZqzZo1Y80iOvD5558LBiPs7e15Xv3Tp08ffPHFF9x5YmKiymRlAawyiYhOnDihomTlYWVlRW/evGGL1JiFCxeqvJfyWLRoERsuoiXKO2JNN9NUhy67uv7www+V3hHVNlYqmzZVXFyM7du3s+YacevWLY11QwD429/+xppE6pCSkhIMHjwYdnZ2GDp0KOuuFmqF2KpVq0obJMuWLcPLly9Zc7VISUnBiBEjUFZWxroAABKJRJzxU8/YsWMHfv75ZwDAzz//rLYxpCtqhQgA48aNY00ceXl5mD59usqkWV15+/YthgwZgvT0dNbFERwcXOOtcUX0C3/iiUwm08uIm0YhymSySsd1T5w4oXbirLY8efIE/fv3V9vE5yNOwq1/hIaG4tdff8XBgwexa9cu1l092Eojn0mTJqk0HNhj4sSJlJOTwxatlNjYWMGWFz4+PhQeHq5y7WbNmlWaUlikagzZWNGFajVWlKxYsaLKxJt79uxBx44dsWPHDo1j1ABARDh9+jT8/f0RHByM3NxcmJqa4p///CeuXLmC+/fvs0UQFhZWo23PRBoOavsRlUilUkRHRyMsLKzS+mB6ejo+/fRTRERE4KOPPkKHDh3g6uoKKysrPHnyBI8fP8bdu3cF64XbtGmD6OhoBAQEIDU1FXFxcbwrVjBp0iTWJGKkVCpEABg7dizS0tK0WlxeVFSEmJgY1iygefPmWLRoEb744gvubnfo0CEVoffo0UP9UJCIUVKlEAEgMjIS7u7umDZtGjIzM1m3VtjZ2SEyMhKRkZGwsbER+H788UfBOWC43Dr6IicnBxs3bkRiYiKkUilkMpna/te0tDTExMTg3r17yM/Ph1QqRc+ePREaGqq22pGTk4OjR4/izp07yM7OhqurK7p27Ypx48bB0tKSDa8VLl68iDNnziA1NRWtW7fG8OHD4ePjw4bVDKbOWCkZGRkUEREh2C6issPa2prGjh1Lx44d07iJ471791TKNWvWTGN8faCgoIC8vb3J09OTxo8fT9bW1gQI8zi+e/eOIiMjyczMjNq1a0dhYWEkk8nIxcWFAJCbmxs9fPiQiy8tLaXly5eTpaUlubu708cff0yTJk2i1q1bE1CRtvnq1atcvLbUpLGSk5NDQUFBZGFhQX5+fjR58mQuG8bMmTPZ8EqpqrGikxCVyOVyio2Npfnz59OECRNo0KBB1K1bN/Lz86OQkBD617/+RTExMVptdTFz5kwVIa5du5YNq1d89tln1LlzZ8rLyyMioiVLlnCf/cKFC5SRkUGdOnWiLl26qKRbzsnJ4ZKCurm5UXFxMeXl5ZGvry+1adOGTp48KcgqUVxcTH369CEA1LJlS8rIyOBdrWqqK8Tk5GTq0KED9enThxITEzk7P0WhLimeDSJEfZGfn09NmzYViNDNza1e3w3T0tKoUaNGFBsby9kOHz7Mff4JEybQhx9+SIGBgVRYWMgr+T+ioqK4+JMnT9KgQYOoR48eGrvB+MlLDxw4wLorpTpCLCwspPbt25Ovr6/Kdzhz5gz3Wdg9DSujKiFW2n1jaLZv364yG3zJkiWwsrIS2OoTmzdvhoODg2CMNS0tjXu9d+9e5Ofn49ChQxpT7PG/n0wmw/379xETE6NxRgy/bnjnzh2exzB89dVXyM7ORmxsrMp34C8z1sfQnhKtGiuGQJlzkI+Xl1e977I5cuQIhg4dKphSxe96sra2RkxMDBwcHDgby7Nnz7jXhYWFiI2N5bblVQe/24vN3ahvkpOTsXnzZmzYsAGOjo6sG1evXuVe63Npb50JcfPmzYKlB2ZmZvj+++/r/bhycHAwJk6cKLBduXKFe71gwYIqk5jy72pTpkzBgAED/udUwx9//MG9NvS6nbKyMsycORNTp05lXQCEO3lV9bl1gn1W1wZZWVnk4OAgqBsaaocCQ/P06VPuO9jY2HANGE3k5uZyu16ZmprS8+fP2RABJSUl1KRJEy6+thor6nj9+jX3XRs3bkwlJSVsiEbqZR1x/vz5yMnJ4c79/f2xcOFCXkTDgX+HGDx4sMb1PkquXr2K8vJyABWzmFu1asVECLl48SIKCgoAAD179qzTlCv8Gdb9+vXTy6wbJVoLMT09HcePH6/xSr6LFy8iOjqaO2/VqhV+/PHHWs2po0/4j+WBAwfyPOrhC5efLlkT/KW1ISEhPE/tw//sAQEB/3PoA/YWyRITEyPYY8XS0pLmzJlTrcVMr169IqlUyl1LKpVScnIyG9ag8PDw4L4Pv4NaE/zt1s6fP8+6BRQWFnLdWyYmJvTs2TM2pEr0+Wjm6+D3339n3ZVS1aNZoxCLiopo5MiR3Buzh62tLc2ePZsuXryo1cbbaWlpgs0kXVxcuJ3kGyopKSnc93FycmLdKuTl5ZG5uTkBFSmV2T46lj179nDX9/f3F/jevn1Lbdu2pTt37gjsLPoSYkZGBvdZdK0fElUtRI2tZplMhuPHj7Nmjvz8fKxbtw7r1q2Dvb09goKC0LVrV7Rv3x6tW7dG06ZNUVpayvVH7dy5E9nZ2QAq6kYHDx6ssn5U3+HnkPTz8+N51HP16lVuSUTPnj1V+uhYDh48yL1m93fZtWsXXrx4UWt/Q3790NfXV6/1Q0BD941CocCjR49Ys0bevn2Lw4cP4/Dhw6xLgImJCSIjI7Fq1Sq1A/4NDX6dSRsh6hKvUChw+fJlABV7z4wePZrzlZSUYMOGDZg6dSokEglnNyT8z67Xbpv/R20LwczMDHFxcViwYEGVE2O1xc/PD1euXME333xjFCIEhD9OZRsKKeE3bKqKl8vlKCoqAlDRd9ikSRPOFxUVhczMTCxatIizGRqDNlQAaKwjKsnOzqbVq1dz2z7ocpibm9PgwYPp9OnT7GUbPC9fvuS+p0QiIYVCwYYIKCkpIUtLSwIqts7QZk3w8OHDCaiYeVNQUEBZWVk0Y8YMsrGxoStXrrDhatFHHTEzM5Pbq9DKyoqKi4vZkCqpdh1RiUQiwbx58zBv3jw8ffoUFy5cQEJCAl6+fIm0tDS8fPkSr1+/hkKhgK2tLdzd3dGzZ0/07dsXISEhddrvZUgaNWoES0tLlJSUYMqUKVp1P9na2qKkpARhYWFa5Z1Rzo4/e/YsnJycUFxcDKlUitOnT6Nfv35suMG4dOkSN3HZ19fXIPMiqxQinzZt2qBNmzb47LPPBHaFQgEigrm5Tpdr0DRr1gy3b99GVlZWlfU9oCLJ6c2bN/H06VOt61jNmjXDb7/9hj///BNJSUlo0aIFfHx89N5QqApD1w8BHYWoifo+Pmwo1O1iWhnKf2Rd6dy5s14nGOgKfycHQwmx6ueJyHtNQkICHj58CABwcXExWJVAFOJ7Tnp6OoKCguDm5oadO3eybnz77bfc64iICK3qwtXBMFetx5SVlSE5ORkPHjxQ2bXgfWThwoU4e/YsUlNTsWPHDoFv//792LNnDwCgd+/emDt3rsCvT94LIRYVFWHPnj0ICAiAlZUVPDw80LlzZ9jY2GDUqFFITk7mYl+9eoU7d+6oLG81VvirMpWzzsvLy7F+/XpuNCc4OBjnz583bCOJ6c4xOn755Rf64IMPCKgY3501axadOnWK4uLiaOPGjeTq6kp2dnZ08+ZNOnfuHNfXN378ePZSDZKq+hFjY2PJwsKCzMzMKCIigiZPnkxt27YlAOTq6kpff/11lX2k2lDjfsSGSnl5OebMmYP169cDALp06YLjx48LWq29evXCkCFD4O/vj9DQUNjb23OJ7G/cuMHFGQNLly4V1O9mzJgBR0dHDB8+HAkJCThw4ACSkpJgZmaGMWPGwMfHB8OGDat2j8hvv/2Ga9eucee3b9/medXAKtMYkMvlFBYWxo18eHt7U3Z2NhvGceHCBS5WeYwaNYoNa5A06BzaDZ2IiAhuQqmtrS2OHDlS6eSAAQMGoHv37oK1JAYZT60Dli1bpna7EkOPeA0bNkztlnka08iwymzo7Ny5U/AfuG3bNjZELRMmTBCUu3fvHhsiYkA07mDfEHn16hU8PDy4NR4tWrTAixcvtJrt4+Xlxe3KKpFIkJWVVWmiUhH9YlTdN8uXL+dECADh4eFaifD169eCrYH9/f1FEdYyRiPEtLQ0fP/99wKbtvvBKCegKjHUeKqIZoxGiMeOHROkwHB3d9d6UgK7EY2xNFQaEkYjRDZB6ODBgwXnlcEXor29fZWZGkT0j9EIkd95ClQ9FV9Jdna2YGcDf39/gw3si2jGKP7iWVlZKn1lvXr1Epxr4vLly4JxZfGxXDcYhRDZXbDs7OzQtm1bgU0T+qofKhQKFBYWsmYRLTEKIbJLFNq3b6919wtfiE2bNlWbB7sq4uPj4ebmBicnpyqX1IqoxyiE2KJFi0rPNfHs2TPcu3ePO/fz86vWIH9kZCTS09NRWFiIAwcOsG4RLTAKITo6Ogo2saxs4yE+ixcv5jJzAdV/LCvHVE1NTTF+/HjGK6IVzJBfg4U/28Pd3Z11q3D06FEuT6HyiIuLY8O04s2bNxQdHV3t8iJGNNacnp4ODw8PrsFw48YNjXuBHDlyBDKZTLBUwNbWFjk5OdV6NIvUHKN4NAOAs7MzvvvuO+589uzZePv2LS+iYlr81KlTMWbMGAwbNkzg69evnyjCOsSo5iOOHz8e5eXlmDp1Km7cuIHu3bsjNDQUDg4O+OOPP3Dy5EnY2dnhxIkTUCgUgtGY6tYPRfQE+6w2Bl6+fEnz58+nLl26UJMmTcje3p569epFX3/9NZdgNDIyUlA/vH79OnMVkdrEaOqIutKrVy/Ex8cDAJo0aYKcnBytpowBFdPGoqOj8fDhQzRv3hyjR49G37592TARHTCaOqIu5OfnC5YF+Pr6ai3Cy5cvw8PDA3v27AER4bvvvoOvry+WLl3KhoroAnOHfC84dOiQ4LG8YsUKNkQt165dIxsbG4qKiuKWZ86aNYuAihzXDT0Vc13yXt4Rjx07JjgPDAwUnKtDLpdDJpNh8ODBWLlyJdfCVqZoIyK1m5+LaEeDF2J0dDQCAwMxc+ZMrbbeyM/Px+nTp7nzdu3aoXfv3rwI9WzduhUpKSlYvXq1wM7PAtu8eXOeR0Qn2FtkQ4K/aycAGjduHBuigvJRqjyOHz/OhqjFy8uLhg0bJrA9fPiQu06LFi1ILpcL/CLa06D7Efkd2EBFsvjK2LJlC5f5AQDmzJmDESNG8CI0M2zYMIwbN05g47//5MmTtW7wiKiBVWZDQrkbPABq1KgRnTt3jg0hooo9Y+bMmcPlgQZA8+fPF2zQrStFRUUkkUi46z1+/JgNEdGBBn1HHDNmDNatWwegImNVfn4+rl27BkdHRxQVFSE9PR1xcXGIjo5GSkoKgIq5iuvXr8df//pX/qV05siRI9zexQMGDICnpycTIaITrDIbEuXl5bR3717q2LGj4G7HHlKplMLCwuinn37SS2YrIiI/Pz/u+vv27WPdIjpiNCMrhYWFSEpKQl5eHoqLi2FhYQGJRIKWLVuqzcFSExITE7mlqhKJBGlpaYJd6UV0p0E/mvlYW1vD29ubNRuE3bt3c68nTpwoEGFcXBzCwsLw4MEDUZw60OD7EWubsrIygRDZrT42btwICwsLUYQ6YjR3xNoiPj6eWzXo7e2NLl26cL6nT5/i0KFDKqlPRKpGvCPWAH6uv9LSUnzyySfw8vIS161UA1GIOuLt7Q13d3cAQFJSEsrKyvDkyRN89NFHSE1NxcmTJ8VMEdVA/IvpiIWFBU6cOAEvLy9cvnwZ9vb28PT0RH5+Ps6fPw+pVMoWEdECo+m+qW3KysqQkJCAlJQUtG3bttZa7MaKKESReoH4aBapF4hCFKkXiEIUqRf8Hxk9wch8DZN7AAAAAElFTkSuQmCC;fillColor=#b0e3e6;strokeColor=#0e8088;" parent="1" vertex="1">
          <mxGeometry x="540" y="360" width="16.43" height="14" as="geometry" />
        </mxCell>
        <mxCell id="W4gku7kEh_xzMsPoFV-s-4" style="edgeStyle=orthogonalEdgeStyle;rounded=1;orthogonalLoop=1;jettySize=auto;html=1;entryX=0;entryY=0.5;entryDx=0;entryDy=0;fillColor=#b0e3e6;strokeColor=#666666;endArrow=open;endFill=0;strokeWidth=2;curved=0;endSize=10;" parent="1" source="W4gku7kEh_xzMsPoFV-s-5" target="W4gku7kEh_xzMsPoFV-s-6" edge="1">
          <mxGeometry relative="1" as="geometry" />
        </mxCell>
        <mxCell id="W4gku7kEh_xzMsPoFV-s-5" value="计算感知算法，获取局部压缩比" style="rounded=0;whiteSpace=wrap;html=1;fillColor=none;strokeColor=#0e8088;fontFamily=宋体;" parent="1" vertex="1">
          <mxGeometry x="276" y="354" width="90" height="40" as="geometry" />
        </mxCell>
        <mxCell id="W4gku7kEh_xzMsPoFV-s-6" value="&lt;svg xmlns=&quot;http://www.w3.org/2000/svg&quot; width=&quot;1.179ex&quot; height=&quot;1.595ex&quot; role=&quot;img&quot; viewBox=&quot;0 -694 521 705&quot; xmlns:xlink=&quot;http://www.w3.org/1999/xlink&quot; style=&quot;vertical-align: -0.025ex;&quot;&gt;&lt;defs&gt;&lt;path id=&quot;MJX-15-TEX-I-1D458&quot; d=&quot;M121 647Q121 657 125 670T137 683Q138 683 209 688T282 694Q294 694 294 686Q294 679 244 477Q194 279 194 272Q213 282 223 291Q247 309 292 354T362 415Q402 442 438 442Q468 442 485 423T503 369Q503 344 496 327T477 302T456 291T438 288Q418 288 406 299T394 328Q394 353 410 369T442 390L458 393Q446 405 434 405H430Q398 402 367 380T294 316T228 255Q230 254 243 252T267 246T293 238T320 224T342 206T359 180T365 147Q365 130 360 106T354 66Q354 26 381 26Q429 26 459 145Q461 153 479 153H483Q499 153 499 144Q499 139 496 130Q455 -11 378 -11Q333 -11 305 15T277 90Q277 108 280 121T283 145Q283 167 269 183T234 206T200 217T182 220H180Q168 178 159 139T145 81T136 44T129 20T122 7T111 -2Q98 -11 83 -11Q66 -11 57 -1T48 16Q48 26 85 176T158 471L195 616Q196 629 188 632T149 637H144Q134 637 131 637T124 640T121 647Z&quot;&gt;&lt;/path&gt;&lt;/defs&gt;&lt;g stroke=&quot;currentColor&quot; fill=&quot;currentColor&quot; stroke-width=&quot;0&quot; transform=&quot;scale(1,-1)&quot;&gt;&lt;g data-mml-node=&quot;math&quot;&gt;&lt;g data-mml-node=&quot;mstyle&quot;&gt;&lt;g data-mml-node=&quot;mi&quot;&gt;&lt;use data-c=&quot;1D458&quot; xlink:href=&quot;#MJX-15-TEX-I-1D458&quot;&gt;&lt;/use&gt;&lt;/g&gt;&lt;/g&gt;&lt;/g&gt;&lt;/g&gt;&lt;/svg&gt;-互异近邻梯度选择算法" style="rounded=0;whiteSpace=wrap;html=1;fillColor=none;strokeColor=#0e8088;fontFamily=宋体;" parent="1" vertex="1">
          <mxGeometry x="432" y="354" width="90" height="40" as="geometry" />
        </mxCell>
        <mxCell id="W4gku7kEh_xzMsPoFV-s-7" value="预热训练" style="rounded=0;whiteSpace=wrap;html=1;fillColor=none;strokeColor=#0e8088;fontFamily=宋体;" parent="1" vertex="1">
          <mxGeometry x="26" y="352" width="90" height="40" as="geometry" />
        </mxCell>
        <mxCell id="W4gku7kEh_xzMsPoFV-s-8" style="edgeStyle=orthogonalEdgeStyle;rounded=1;orthogonalLoop=1;jettySize=auto;html=1;entryX=0;entryY=0.5;entryDx=0;entryDy=0;fillColor=#b0e3e6;strokeColor=#666666;endArrow=open;endFill=0;strokeWidth=2;curved=0;endSize=10;" parent="1" source="W4gku7kEh_xzMsPoFV-s-7" target="W4gku7kEh_xzMsPoFV-s-11" edge="1">
          <mxGeometry relative="1" as="geometry" />
        </mxCell>
        <mxCell id="W4gku7kEh_xzMsPoFV-s-9" style="edgeStyle=orthogonalEdgeStyle;rounded=1;orthogonalLoop=1;jettySize=auto;html=1;exitX=1;exitY=0.5;exitDx=0;exitDy=0;entryX=0;entryY=0.5;entryDx=0;entryDy=0;fillColor=#b0e3e6;strokeColor=#666666;endArrow=open;endFill=0;strokeWidth=2;curved=0;endSize=10;" parent="1" source="W4gku7kEh_xzMsPoFV-s-6" target="W4gku7kEh_xzMsPoFV-s-10" edge="1">
          <mxGeometry relative="1" as="geometry">
            <mxPoint x="538" y="378" as="sourcePoint" />
            <mxPoint x="598" y="374" as="targetPoint" />
          </mxGeometry>
        </mxCell>
        <mxCell id="W4gku7kEh_xzMsPoFV-s-10" value="编码、传输、同步、更新" style="rounded=0;whiteSpace=wrap;html=1;fillColor=none;strokeColor=#0e8088;fontFamily=宋体;" parent="1" vertex="1">
          <mxGeometry x="572" y="354" width="90" height="40" as="geometry" />
        </mxCell>
        <mxCell id="W4gku7kEh_xzMsPoFV-s-11" value="动量修正" style="rounded=0;whiteSpace=wrap;html=1;fillColor=none;strokeColor=#0e8088;fontFamily=宋体;" parent="1" vertex="1">
          <mxGeometry x="152" y="352" width="90" height="40" as="geometry" />
        </mxCell>
        <mxCell id="W4gku7kEh_xzMsPoFV-s-12" style="edgeStyle=orthogonalEdgeStyle;rounded=1;orthogonalLoop=1;jettySize=auto;html=1;entryX=-0.004;entryY=0.439;entryDx=0;entryDy=0;entryPerimeter=0;fillColor=#b0e3e6;strokeColor=#666666;endArrow=open;endFill=0;strokeWidth=2;curved=0;endSize=10;" parent="1" source="W4gku7kEh_xzMsPoFV-s-11" target="W4gku7kEh_xzMsPoFV-s-5" edge="1">
          <mxGeometry relative="1" as="geometry" />
        </mxCell>
        <mxCell id="W4gku7kEh_xzMsPoFV-s-13" style="edgeStyle=orthogonalEdgeStyle;rounded=1;orthogonalLoop=1;jettySize=auto;html=1;entryX=1;entryY=0.5;entryDx=0;entryDy=0;exitX=0.5;exitY=0;exitDx=0;exitDy=0;fillColor=#b0e3e6;strokeColor=#666666;endArrow=open;endFill=0;strokeWidth=2;curved=0;endSize=10;" parent="1" source="W4gku7kEh_xzMsPoFV-s-10" target="W4gku7kEh_xzMsPoFV-s-16" edge="1">
          <mxGeometry relative="1" as="geometry">
            <mxPoint x="222" y="428" as="sourcePoint" />
            <mxPoint x="474" y="454" as="targetPoint" />
            <Array as="points">
              <mxPoint x="617" y="318" />
            </Array>
          </mxGeometry>
        </mxCell>
        <mxCell id="W4gku7kEh_xzMsPoFV-s-14" style="edgeStyle=orthogonalEdgeStyle;rounded=1;orthogonalLoop=1;jettySize=auto;html=1;entryX=0.5;entryY=0;entryDx=0;entryDy=0;fillColor=#b0e3e6;strokeColor=#666666;endArrow=open;endFill=0;strokeWidth=2;curved=0;endSize=10;" parent="1" source="W4gku7kEh_xzMsPoFV-s-16" target="W4gku7kEh_xzMsPoFV-s-11" edge="1">
          <mxGeometry relative="1" as="geometry" />
        </mxCell>
        <mxCell id="W4gku7kEh_xzMsPoFV-s-15" style="edgeStyle=orthogonalEdgeStyle;rounded=1;orthogonalLoop=1;jettySize=auto;html=1;entryX=0.5;entryY=1;entryDx=0;entryDy=0;endArrow=open;endFill=0;strokeColor=#666666;strokeWidth=2;curved=0;endSize=10;" parent="1" source="W4gku7kEh_xzMsPoFV-s-16" target="W4gku7kEh_xzMsPoFV-s-19" edge="1">
          <mxGeometry relative="1" as="geometry" />
        </mxCell>
        <mxCell id="W4gku7kEh_xzMsPoFV-s-16" value="&lt;font style=&quot;font-size: 10px;&quot;&gt;`Epoch_{max}`?&lt;/font&gt;" style="rhombus;whiteSpace=wrap;html=1;fillColor=none;strokeColor=#0e8088;" parent="1" vertex="1">
          <mxGeometry x="352" y="296" width="80" height="44" as="geometry" />
        </mxCell>
        <mxCell id="W4gku7kEh_xzMsPoFV-s-17" style="edgeStyle=orthogonalEdgeStyle;rounded=1;orthogonalLoop=1;jettySize=auto;html=1;entryX=0.5;entryY=0;entryDx=0;entryDy=0;endArrow=open;endFill=0;strokeColor=#666666;strokeWidth=2;curved=0;endSize=10;" parent="1" source="W4gku7kEh_xzMsPoFV-s-18" target="W4gku7kEh_xzMsPoFV-s-7" edge="1">
          <mxGeometry relative="1" as="geometry" />
        </mxCell>
        <mxCell id="W4gku7kEh_xzMsPoFV-s-18" value="&lt;font face=&quot;宋体&quot; style=&quot;font-size: 10px;&quot;&gt;数据准备&lt;/font&gt;" style="rounded=1;whiteSpace=wrap;html=1;fillColor=none;strokeColor=#0e8088;" parent="1" vertex="1">
          <mxGeometry x="26" y="272" width="90" height="42" as="geometry" />
        </mxCell>
        <mxCell id="W4gku7kEh_xzMsPoFV-s-19" value="&lt;font face=&quot;宋体&quot;&gt;&lt;span style=&quot;font-size: 10px;&quot;&gt;最优模型&lt;/span&gt;&lt;/font&gt;" style="rounded=1;whiteSpace=wrap;html=1;fillColor=none;strokeColor=#0e8088;" parent="1" vertex="1">
          <mxGeometry x="347" y="232" width="90" height="42" as="geometry" />
        </mxCell>
        <mxCell id="W4gku7kEh_xzMsPoFV-s-20" value="Batch Size" style="text;html=1;align=center;verticalAlign=middle;whiteSpace=wrap;rounded=0;fontFamily=Times New Roman;fontColor=#FF0000;fontSize=10;strokeColor=#0000FF;strokeWidth=0.2;" parent="1" vertex="1">
          <mxGeometry x="70" y="302" width="46" height="12" as="geometry" />
        </mxCell>
        <mxCell id="W4gku7kEh_xzMsPoFV-s-21" value="`Epoch_{max}`" style="text;html=1;align=center;verticalAlign=middle;whiteSpace=wrap;rounded=0;fontFamily=Times New Roman;fontColor=#FF0000;fontSize=10;strokeColor=#0000FF;strokeWidth=0.2;" parent="1" vertex="1">
          <mxGeometry x="118" y="287" width="46" height="12" as="geometry" />
        </mxCell>
        <mxCell id="W4gku7kEh_xzMsPoFV-s-22" value="`Epoch_{wm}`" style="text;html=1;align=center;verticalAlign=middle;whiteSpace=wrap;rounded=0;fontFamily=Times New Roman;fontColor=#FF0000;fontSize=10;strokeColor=#0000FF;strokeWidth=0.2;" parent="1" vertex="1">
          <mxGeometry x="70" y="380" width="46" height="12" as="geometry" />
        </mxCell>
        <mxCell id="W4gku7kEh_xzMsPoFV-s-23" value="梯度同步延迟阈值" style="text;html=1;align=center;verticalAlign=middle;whiteSpace=wrap;rounded=0;fontFamily=宋体;fontColor=#FF0000;fontSize=10;strokeColor=#0000FF;strokeWidth=0.2;" parent="1" vertex="1">
          <mxGeometry x="197.21" y="392" width="44.79" height="26" as="geometry" />
        </mxCell>
        <mxCell id="W4gku7kEh_xzMsPoFV-s-24" value="&lt;font face=&quot;宋体&quot;&gt;学习率&lt;/font&gt;&lt;font face=&quot;Times New Roman&quot;&gt;`eta`&lt;/font&gt;" style="text;html=1;align=center;verticalAlign=middle;whiteSpace=wrap;rounded=0;fontFamily=Times New Roman;fontColor=#FF0000;fontSize=10;strokeColor=#0000FF;strokeWidth=0.2;" parent="1" vertex="1">
          <mxGeometry x="70" y="272" width="46" height="12" as="geometry" />
        </mxCell>
        <mxCell id="W4gku7kEh_xzMsPoFV-s-25" value="&lt;font color=&quot;#cc99ff&quot;&gt;`k`-RNGC&lt;/font&gt;" style="text;html=1;align=center;verticalAlign=middle;whiteSpace=wrap;rounded=0;" parent="1" vertex="1">
          <mxGeometry x="476" y="408" width="52" height="14" as="geometry" />
        </mxCell>
      </root>
    </mxGraphModel>
  </diagram>
</mxfile>
